<?xml version="1.0" standalone="no"?>
<!DOCTYPE svg PUBLIC "-//W3C//DTD SVG 1.1//EN" "http://www.w3.org/Graphics/SVG/1.1/DTD/svg11.dtd" >
<svg xmlns="http://www.w3.org/2000/svg" xmlns:xlink="http://www.w3.org/1999/xlink" version="1.1">
<metadata></metadata>
<defs>
<font id="alda_proregular" horiz-adv-x="1404" >
<font-face units-per-em="2048" ascent="1563" descent="-485" />
<missing-glyph horiz-adv-x="491" />
<glyph unicode="&#xfb01;" horiz-adv-x="1239" d="M68 0q0 53 30.5 73.5t137.5 41.5v725q-70 6 -152 30v74q63 8 152 10v76q0 209 120.5 332t325.5 123q276 0 276 -131q0 -76 -73 -111l-34 25.5t-36 25.5t-33.5 21.5t-40 21.5t-40 15.5t-48 12.5t-51.5 3q-111 0 -150.5 -73.5t-39.5 -202.5v-138h503q78 0 109 -10v-831 q96 -16 162 -39v-74h-494q-2 49 27 72.5t129 42.5v725h-436v-729q84 -10 163 -37v-74h-507z" />
<glyph unicode="&#xfb02;" horiz-adv-x="1251" d="M68 0q0 53 30.5 73.5t137.5 41.5v725q-70 6 -152 30v74q63 8 152 10v56q0 211 118.5 343t337.5 132q111 0 203 -21.5t135 -50.5v-1302q90 -12 164 -37v-74h-508q0 53 31 73.5t137 41.5v1188q-88 55 -225 55q-121 0 -169 -64.5t-48 -189.5v-150h284v-71q-18 -25 -53 -34 t-115 -9h-116v-729q84 -10 163 -37v-74h-507z" />
<glyph unicode="&#xfb03;" horiz-adv-x="1857" d="M68 0q0 53 30.5 73.5t137.5 41.5v725q-70 6 -152 30v74q63 8 152 10v35q0 219 112.5 347t310.5 128q82 0 126 -28.5t44 -77.5q0 -59 -49 -88q-6 2 -33.5 16t-34.5 17.5t-28.5 13.5t-34 12t-32 5t-37.5 3q-168 0 -168 -227v-156h442v76q0 209 121 332t325 123 q276 0 277 -131q0 -76 -74 -111q-8 6 -33.5 25.5t-36 25.5t-34 21.5t-40 21.5t-40 15.5t-48 12.5t-50.5 3q-111 0 -151 -73.5t-40 -202.5v-138h504q78 0 108 -10v-831q96 -16 162 -39v-74h-493q-2 49 26.5 72.5t128.5 42.5v725h-436v-729q84 -10 164 -37v-74h-508 q0 53 31 73.5t137 41.5v725h-442v-729q84 -10 163 -37v-74h-507z" />
<glyph unicode="&#xfb04;" horiz-adv-x="1871" d="M68 0q0 53 30.5 73.5t137.5 41.5v725q-70 6 -152 30v74q63 8 152 10v35q0 219 112.5 347t310.5 128q82 0 126 -28.5t44 -77.5q0 -59 -49 -88q-6 2 -33.5 16t-34.5 17.5t-28.5 13.5t-34 12t-32 5t-37.5 3q-168 0 -168 -227v-156h444v56q0 211 119 343t338 132 q111 0 203 -21.5t135 -50.5v-1302q90 -12 164 -37v-74h-508q0 53 30.5 73.5t137.5 41.5v1188q-88 55 -226 55q-121 0 -169 -64.5t-48 -189.5v-150h285v-71q-18 -25 -53 -34t-115 -9h-117v-729q84 -10 164 -37v-74h-508q0 53 31 73.5t137 41.5v725h-444v-729q84 -10 163 -37 v-74h-507z" />
<glyph horiz-adv-x="0" />
<glyph unicode="&#xd;" horiz-adv-x="681" />
<glyph unicode=" "  horiz-adv-x="491" />
<glyph unicode="&#x09;" horiz-adv-x="491" />
<glyph unicode="&#xa0;" horiz-adv-x="491" />
<glyph unicode="!" horiz-adv-x="569" d="M154 92q0 47 34.5 83t81.5 36t83 -36t36 -83q0 -45 -36 -80t-83 -35q-45 0 -80.5 35t-35.5 80zM176 1364q33 4 72 4q41 0 68.5 -12.5t42 -25.5t20.5 -48t7 -56.5t1 -70.5q0 -111 -70 -772h-90q-4 76 -18 289t-23.5 396t-9.5 296z" />
<glyph unicode="&#x22;" horiz-adv-x="722" d="M102 1380q0 43 25 76t74 33t73.5 -33t24.5 -76q0 -93 -61 -372h-70q-66 297 -66 372zM424 1380q0 43 24.5 76t73.5 33t74 -33t25 -76q-1 -93 -62 -372h-70q-66 297 -65 372z" />
<glyph unicode="#" horiz-adv-x="1441" d="M115 399l8 80q71 10 190 10h64l82 416h-105q-84 0 -176 29l8 80q72 10 191 10h106l66 324h74q55 -47 34 -146l-36 -178h350l65 324h74q55 -47 35 -146l-37 -178h246l-8 -78q-20 -27 -52 -34t-116 -7h-93l-84 -416h289l-8 -77q-20 -27 -52 -34t-116 -7h-137l-74 -371h-74 q-55 47 -34 143l45 228h-351l-73 -371h-74q-55 47 -35 143l45 228h-61q-84 0 -176 28zM514 489h350l82 416h-348z" />
<glyph unicode="$" horiz-adv-x="1134" d="M100 82q-37 147 45 315h64q45 -102 59 -233q80 -60 236 -72q0 16 2 43t3 49.5t1 38.5v387q-119 45 -176 74q-215 102 -215 334q0 152 99 240t288 106q-14 158 41 182h102l-12 -176q152 -2 319 -35q37 -111 -34 -315h-62q-45 82 -69 209q-84 23 -164 26q-4 -119 -4 -137 v-356l106 -37q143 -55 218 -137t75 -232q0 -158 -104.5 -258t-288.5 -116q12 -154 -41 -181h-103l13 179q-268 12 -398 102zM289 1051q0 -146 170 -222q18 -10 51 -22v446q-221 -20 -221 -202zM623 92q225 25 225 225q0 94 -45 147.5t-156 94.5q-8 2 -24 10v-477z" />
<glyph unicode="%" horiz-adv-x="1529" d="M72 1044q0 135 93 227.5t224 92.5q143 0 232.5 -83t89.5 -226q0 -133 -94.5 -227.5t-223.5 -94.5q-139 0 -230 83t-91 228zM223 1047q0 -104 51.5 -163t120.5 -59q72 0 117 58.5t45 167t-48 165t-120 56.5t-119 -59.5t-47 -165.5zM238 0q-23 72 67 188l924 1160h65 q20 -76 -67 -189l-924 -1159h-65zM819 295q0 135 93.5 227t224.5 92q143 0 232 -82.5t89 -226.5q0 -133 -94 -227t-223 -94q-139 0 -230.5 83t-91.5 228zM971 297q0 -104 51 -162.5t121 -58.5q72 0 117 58.5t45 167t-48.5 164.5t-120 56t-118.5 -59.5t-47 -165.5z" />
<glyph unicode="&#x26;" horiz-adv-x="1468" d="M111 338q0 143 90 230t219 126q-195 184 -195 346q0 156 105.5 243t275.5 87q168 0 259 -85t91 -216t-80.5 -216t-209.5 -124l188 -164q45 -43 162 -147q51 139 69 334h222q49 0 104 -11v-73q-45 -59 -162 -60h-63q-27 -156 -78 -274q164 -151 301 -260q-12 -90 -106 -90 q-66 0 -123 47q-27 23 -166 145q-158 -199 -428 -199q-233 0 -354 99.5t-121 261.5zM311 365q0 -125 78 -198t219 -73q201 0 320 160l-228 203q-41 35 -116.5 97t-102.5 85q-170 -94 -170 -274zM408 1079q0 -76 46 -142.5t148 -154.5q86 49 132 111.5t46 163t-50 155 t-140 54.5q-84 0 -133 -50.5t-49 -136.5z" />
<glyph unicode="'" horiz-adv-x="401" d="M102 1380q0 43 25 76t74 33t73.5 -33t24.5 -76q0 -93 -61 -372h-70q-66 297 -66 372z" />
<glyph unicode="(" horiz-adv-x="706" d="M164 596q0 309 132 557t310 391q33 -18 49 -51q-311 -389 -311 -889q0 -250 66.5 -465t224.5 -424q-14 -29 -51 -51q-172 147 -296 386t-124 546z" />
<glyph unicode=")" horiz-adv-x="706" d="M51 -285q305 381 305 889q0 496 -293 889q16 29 52 51q78 -68 147.5 -153.5t134 -201.5t102.5 -267.5t38 -317.5q0 -293 -132.5 -547t-304.5 -393q-31 23 -49 51z" />
<glyph unicode="*" horiz-adv-x="770" d="M86 1239q-14 39 10 84q25 43 68 51q20 -18 90 -79.5t100 -86.5q-6 31 -23.5 122t-23.5 126q29 33 78 33t78 -33q-6 -35 -23.5 -126t-23.5 -122q186 158 190 162q39 -4 66 -49q27 -43 12 -86q-18 -6 -107.5 -36t-127.5 -44q236 -82 237 -84q10 -39 -12 -82 q-20 -41 -66 -51q-36 29 -190 164q4 -20 22.5 -115.5t22.5 -132.5q-25 -33 -78 -33q-49 0 -78 33q45 236 47 248q-16 -14 -57 -51t-75 -67t-56 -48q-43 10 -68 51q-27 41 -10 84q31 12 117 42t119 42q-29 10 -117 41t-121 43z" />
<glyph unicode="+" horiz-adv-x="1079" d="M102 487v95q68 12 191 12h170v229q0 109 49 142h104v-371h361v-84q-33 -49 -141 -49h-220v-250q0 -109 -49 -141h-104v391h-195q-80 0 -166 26z" />
<glyph unicode="," horiz-adv-x="475" d="M-4 -285q133 197 194 480q29 8 58 8q96 0 96 -109q0 -92 -82 -209t-209 -221q-31 20 -57 51z" />
<glyph unicode="-" horiz-adv-x="743" d="M133 463v112q20 27 52 34t116 7h309v-112q-20 -27 -52 -34t-116 -7h-309z" />
<glyph unicode="." horiz-adv-x="495" d="M131 94q0 49 34 83t83 34t83 -34t34 -83t-34 -83t-83 -34t-83 34t-34 83z" />
<glyph unicode="/" horiz-adv-x="1019" d="M76 -418q0 47 33 131l682 1757h88q18 -31 18 -69q0 -41 -33 -129l-682 -1757h-88q-18 31 -18 67z" />
<glyph unicode="0" horiz-adv-x="1329" d="M113 649q0 326 150.5 523.5t402.5 197.5q246 0 398.5 -177t152.5 -499q0 -324 -149.5 -520.5t-408.5 -196.5q-244 0 -395 179.5t-151 492.5zM319 672q0 -266 93.5 -422t267.5 -156q166 0 248 156t82 432q0 270 -91.5 420.5t-261.5 150.5t-254 -152.5t-84 -428.5z" />
<glyph unicode="1" horiz-adv-x="790" d="M76 0q0 57 47 81t192 44v1087q-94 8 -202 31v66q141 49 264 49q88 0 123 -27v-1210q143 -20 219 -47v-74h-643z" />
<glyph unicode="2" horiz-adv-x="1046" d="M92 1104q0 106 112.5 186t293.5 80q215 0 318.5 -101.5t103.5 -262.5q0 -61 -11.5 -119t-43 -117t-56.5 -104t-83 -107.5t-88 -95.5t-106.5 -100.5t-105.5 -91t-117 -97.5v-6h664v-109q-39 -59 -148 -59h-725v127q160 147 295 291q319 336 320 579q0 258 -230 258 q-106 0 -163.5 -69.5t-77.5 -210.5q-70 0 -111 33.5t-41 95.5z" />
<glyph unicode="3" horiz-adv-x="1058" d="M66 207q0 55 34.5 93t98.5 46q33 -111 110.5 -184.5t182.5 -73.5q119 0 194.5 71.5t75.5 202.5q0 152 -110.5 217.5t-338.5 55.5v113q203 18 293 88.5t90 205.5q0 104 -54 161t-155 57q-106 0 -159.5 -56.5t-83.5 -181.5q-49 6 -90 38t-41 87q0 92 104.5 156.5 t274.5 64.5q203 0 303 -83t100 -222q0 -236 -264 -326q141 -20 237.5 -110t96.5 -240q0 -186 -132.5 -298t-361.5 -112q-186 0 -295.5 69t-109.5 161z" />
<glyph unicode="4" horiz-adv-x="1167" d="M68 379q0 12 1 25.5t3 23.5t7 24.5t8 23.5t11 24.5t12.5 23.5t15.5 25.5t15 25t18.5 29t18.5 27.5l375 594q49 72 84 98.5t92 26.5h143v-858h234v-93q-39 -53 -135 -59h-99v-225q131 -23 189 -41v-74h-553q0 55 33.5 75.5t150.5 41.5v223h-622q-2 10 -2 39zM238 492h454 v725z" />
<glyph unicode="5" horiz-adv-x="1011" d="M51 195q0 55 36 93t97 40q70 -240 258 -240q133 0 195.5 81t62.5 220q0 184 -131 259t-413 57l59 552q10 90 100 91h541v-105q-39 -59 -147 -59h-371l-33 -342q600 6 600 -420q0 -209 -129 -327t-332 -118q-188 0 -290.5 62.5t-102.5 155.5z" />
<glyph unicode="6" horiz-adv-x="1134" d="M113 539q0 352 233.5 581.5t620.5 231.5l12 -74q-283 -43 -451 -206t-209 -398q49 80 135.5 128t190.5 48q188 0 292.5 -113.5t104.5 -304.5q0 -205 -133 -330t-338 -125q-215 0 -336.5 146.5t-121.5 415.5zM307 520q0 -180 68.5 -306t212.5 -126q113 0 185.5 84 t72.5 238q0 141 -70.5 226t-183.5 85q-180 0 -283 -152q-2 -16 -2 -49z" />
<glyph unicode="7" horiz-adv-x="925" d="M66 1184v104q39 59 147 60h635v-107q-45 -258 -151.5 -560t-215.5 -468q-68 -104 -133 -162.5t-155 -58.5q-29 0 -54 8v78q377 403 586 1106h-659z" />
<glyph unicode="8" horiz-adv-x="1097" d="M82 317q0 131 88 221.5t215 123.5q-252 125 -252 354q0 154 112.5 253t315.5 99q201 0 301.5 -91t100.5 -230q0 -115 -75 -199t-186 -121q158 -66 230 -149.5t72 -223.5q0 -164 -129.5 -270.5t-329.5 -106.5q-211 0 -337 91t-126 249zM276 344q2 -125 75 -191.5 t198 -66.5q119 0 191.5 59.5t72.5 176.5q0 111 -63.5 169t-204.5 105q-43 12 -96 35q-175 -109 -173 -287zM317 1051q0 -113 74 -174.5t215 -112.5q10 -6 23 -8q147 106 147 270q0 104 -63.5 170t-167.5 66q-100 0 -164 -56.5t-64 -154.5z" />
<glyph unicode="9" horiz-adv-x="1130" d="M92 885q0 199 123 341t322 142q219 0 350 -141.5t131 -431.5q0 -352 -222.5 -573.5t-609.5 -223.5l-14 74q293 43 453.5 211t191.5 401q-121 -188 -340 -188q-174 0 -279.5 109.5t-105.5 279.5zM289 928q0 -139 71.5 -219t202.5 -80q78 0 148.5 43t111.5 106v6 q0 211 -68.5 342t-226.5 131q-111 0 -175 -87t-64 -242z" />
<glyph unicode=":" horiz-adv-x="495" d="M131 94q0 49 34 83t83 34t83 -34t34 -83t-34 -83t-83 -34t-83 34t-34 83zM131 719q0 49 34 83t83 34t83 -34t34 -83t-34 -83t-83 -34t-83 34t-34 83z" />
<glyph unicode=";" horiz-adv-x="495" d="M-10 -285q133 197 194 480q29 8 58 8q96 0 96 -109q0 -92 -82 -209t-209 -221q-31 20 -57 51zM131 719q0 49 34 83t83 34t83 -34t34 -83t-34 -83t-83 -34t-83 34t-34 83z" />
<glyph unicode="&#x3c;" horiz-adv-x="1038" d="M119 543q0 38 8 71l766 336q29 -31 39 -84l-627 -336l627 -327q-8 -49 -39 -84l-660 274q-59 23 -86.5 55.5t-27.5 94.5z" />
<glyph unicode="=" horiz-adv-x="1101" d="M113 340v90q68 12 190 12h686v-88q-20 -27 -51 -34t-111 -7h-548q-80 0 -166 27zM113 637v90q68 12 190 12h686v-88q-20 -27 -51 -34t-111 -7h-548q-80 0 -166 27z" />
<glyph unicode="&#x3e;" horiz-adv-x="1038" d="M106 199l627 336l-627 327q8 49 39 84l660 -274q59 -23 87 -55.5t28 -94.5q-1 -38 -9 -71l-766 -336q-29 31 -39 84z" />
<glyph unicode="?" horiz-adv-x="864" d="M51 1159q0 88 96.5 148.5t288.5 60.5q184 0 285.5 -82t101.5 -229q0 -84 -31.5 -151.5t-91 -116t-120 -80t-142.5 -62.5v-289h-90q-80 104 -80 177q0 55 30 95t103 93q117 86 169.5 155.5t52.5 168.5q0 96 -49.5 154.5t-155.5 58.5q-45 0 -85 -19.5t-62.5 -37t-50 -63.5 t-33 -56.5t-25.5 -55.5q-111 16 -111 131zM272 92q0 51 33 85t82 34q51 0 85 -34t34 -85q0 -49 -34 -82t-85 -33q-49 0 -82 33t-33 82z" />
<glyph unicode="@" horiz-adv-x="1865" d="M104 449q0 377 238 627.5t625 250.5q193 0 347 -56.5t250.5 -152.5t146.5 -219t50 -262q0 -270 -147 -432t-340 -162q-201 0 -201 195q0 16 3 47.5t3 40.5h-6q-39 -125 -106.5 -200t-161.5 -75q-117 0 -174.5 104.5t-57.5 256.5q0 217 103.5 368.5t273.5 151.5 q94 0 176 -86q25 27 71 53.5t85 32.5l29 -53q-84 -449 -84 -637q0 -86 71 -86q127 0 213 131t86 346q0 256 -167.5 417.5t-464.5 161.5q-309 0 -497.5 -209.5t-188.5 -543.5q0 -313 184 -501.5t506 -188.5q266 0 483 143l45 -68q-63 -72 -216 -132t-323 -60 q-397 0 -625.5 219t-228.5 578zM745 440q0 -100 26 -177t83 -77q68 0 128 102.5t97 239.5q27 104 37 232q-59 63 -149 63q-104 0 -163 -110.5t-59 -272.5z" />
<glyph unicode="A" d="M29 0q0 49 28.5 70.5t114.5 42.5l422 1251h96q47 0 78 -9t50.5 -35t28.5 -44.5t23 -63.5l363 -1101q88 -20 115.5 -40t27.5 -71h-522v74q81 23 190 37l-118 358h-500l-117 -358q113 -16 191 -37v-74h-471zM463 580h426l-213 647z" />
<glyph unicode="B" horiz-adv-x="1271" d="M82 0q0 57 31.5 77.5t146.5 41.5v1110q-115 20 -146.5 41t-31.5 78h610q389 0 389 -312q0 -113 -60 -192.5t-159 -116.5q145 -23 228.5 -103.5t83.5 -224.5q0 -203 -135.5 -301t-344.5 -98h-612zM444 170q0 -59 60 -59h178q127 0 209 70.5t82 207.5q0 121 -75 187.5 t-216 66.5h-238v-473zM444 754h215q117 4 171.5 77.5t54.5 169.5q0 113 -61.5 174.5t-182.5 61.5h-197v-483z" />
<glyph unicode="C" horiz-adv-x="1273" d="M109 659q0 305 189 507t531 202q88 0 190.5 -11t139.5 -24q12 -41 12 -100q0 -100 -55 -236h-61q-47 100 -70 228q-95 30 -200 30h-7q-217 0 -341 -145t-124 -422q0 -250 125 -412.5t342 -162.5q182 0 348 149q39 -25 54 -57q-59 -92 -171 -160t-276 -68 q-291 0 -458.5 189.5t-167.5 492.5z" />
<glyph unicode="D" horiz-adv-x="1517" d="M82 0q0 57 31.5 77.5t146.5 41.5v1110q-115 20 -146.5 41t-31.5 78h635q315 0 503.5 -164t188.5 -477q0 -317 -183.5 -512t-512.5 -195h-631zM444 170q0 -33 13.5 -46t46.5 -13h174q526 0 526 589q0 246 -130 391.5t-394 145.5h-236v-1067z" />
<glyph unicode="E" horiz-adv-x="1167" d="M82 0q0 57 31.5 77.5t146.5 41.5v1110q-115 20 -146.5 40.5t-31.5 78.5h969q12 -33 12 -93q0 -104 -47 -221h-62q-43 94 -65 203h-445v-465h447v-61q-29 -57 -109 -58h-338v-542h449q23 127 63 215h62q47 -119 47 -228q0 -55 -16 -98h-967z" />
<glyph unicode="F" horiz-adv-x="1126" d="M82 0q0 55 34 75.5t150 41.5v1112q-115 20 -146.5 40.5t-31.5 78.5h948q12 -33 13 -93q0 -104 -48 -221h-61q-43 94 -66 203h-423v-465h426v-61q-29 -57 -109 -58h-317v-538q129 -18 208 -41v-74h-577z" />
<glyph unicode="G" horiz-adv-x="1386" d="M109 641q0 150 46 279t134 230t231.5 159.5t325.5 58.5q237 0 356 -35q12 -41 12 -100q0 -100 -55 -236h-61q-47 100 -70 228q-85 30 -231 30h-9q-221 0 -348 -159.5t-127 -403.5q0 -152 41 -268.5t111 -185t155 -102.5t181 -34q150 0 266 39v361q-119 10 -199 39v59 q123 45 222 45q113 0 155 -47v-469q-175 -149 -469 -149h-4q-319 0 -491 189t-172 472z" />
<glyph unicode="H" horiz-adv-x="1593" d="M82 0q0 55 34 75.5t150 41.5v1114q-117 20 -150.5 40.5t-33.5 76.5h557v-74q-57 -18 -188 -41v-477h692v477q-131 23 -189 41v74h557q0 -55 -33.5 -76t-150.5 -41v-1114q117 -20 150.5 -41t33.5 -76h-557v74q57 18 189 41v526h-692v-526q131 -23 188 -41v-74h-557z" />
<glyph unicode="I" horiz-adv-x="724" d="M82 0q0 55 35 76.5t153 42.5v1110q-119 20 -153.5 41.5t-34.5 77.5h561v-74q-69 -23 -188 -43v-1114q119 -20 188 -43v-74h-561z" />
<glyph unicode="J" horiz-adv-x="710" d="M-178 -254q0 68 53 104q162 -81 227 -81h2q86 0 124 76.5t38 258.5v1125q-119 20 -153.5 41.5t-34.5 77.5h561v-74q-69 -23 -188 -43v-1010q0 -166 -42 -290t-110 -187t-136.5 -93t-135.5 -30q-88 0 -146.5 34t-58.5 91z" />
<glyph unicode="K" horiz-adv-x="1353" d="M82 0q0 55 34 75.5t150 41.5v1114q-117 20 -150.5 40.5t-33.5 76.5h541v-74q-70 -23 -172 -41v-531l507 535q-92 18 -149 37v74h481q0 -53 -31.5 -75t-134.5 -40l-479 -496l383 -450q133 -158 258 -213v-64q-45 -33 -117 -33q-82 0 -142 46.5t-157 160.5l-419 500v-569 q131 -23 188 -41v-74h-557z" />
<glyph unicode="L" horiz-adv-x="1173" d="M88 0q0 55 33 76.5t145 40.5v1114q-115 20 -146.5 40.5t-31.5 76.5h551v-74q-57 -18 -188 -41v-1122h467q25 137 63 221h61q47 -119 48 -234q-1 -55 -17 -98h-985z" />
<glyph unicode="M" horiz-adv-x="1892" d="M76 0q0 55 33.5 75.5t150.5 41.5l88 1112q-106 20 -136 40.5t-30 78.5h314q90 0 121.5 -33t76.5 -166l260 -778l263 768q47 139 76.5 174t97.5 35h331q0 -57 -30 -78t-136 -41l76 -1112q117 -20 151 -41t34 -76h-551v74q57 18 188 41l-80 1093q-119 -354 -282 -819 q-47 -135 -76 -178t-88 -43h-86q-227 655 -361 1034l-84 -1087q131 -23 189 -41v-74h-510z" />
<glyph unicode="N" horiz-adv-x="1570" d="M82 0q0 55 33.5 76t150.5 41v1112q-106 20 -136 40.5t-30 78.5h222q57 0 89.5 -16.5t63.5 -59.5l705 -1028v989q-131 23 -189 41v74h508q0 -55 -33.5 -76t-150.5 -41v-1022q0 -68 -7.5 -111t-37 -77.5t-84.5 -34.5h-39l-746 1073v-944q135 -23 191 -41v-74h-510z" />
<glyph unicode="O" horiz-adv-x="1533" d="M109 659q0 313 190 512t477 199q283 0 466 -178t183 -498q0 -313 -193.5 -515t-481.5 -202q-281 0 -461 180t-180 502zM313 672q0 -264 126 -420t329 -156q205 0 329 160t124 426q0 264 -126 417.5t-331 153.5t-328 -156.5t-123 -424.5z" />
<glyph unicode="P" horiz-adv-x="1198" d="M82 0q0 55 33.5 76t150.5 41v1112q-115 20 -146.5 40.5t-31.5 78.5h238q41 0 184 3t174 3q213 0 328.5 -91.5t115.5 -265.5q0 -90 -42 -169.5t-122 -141.5q-80 -63 -214 -91q-80 -17 -171 -17q-62 0 -128 8v-471q152 -20 208 -41v-74h-577zM451 698q71 -14 130 -14 q41 0 75 7q84 16 137 41.5t82.5 71.5t41 88t11.5 91q0 131 -77 198.5t-222 67.5q-131 0 -178 -6v-545z" />
<glyph unicode="Q" horiz-adv-x="1531" d="M109 659q0 313 189 512t478 199q283 0 466 -178t183 -498q0 -256 -132 -440t-347 -248q328 -229 617 -229q78 0 206 28l25 -55q-35 -49 -118 -91t-197 -42q-170 0 -347.5 98.5t-334.5 264.5q-25 -2 -49 -3q-281 0 -460 180t-179 502zM313 672q0 -264 126 -420t329 -156 q205 0 329 160t124 426q0 262 -127 416.5t-330 154.5q-207 0 -329 -156.5t-122 -424.5z" />
<glyph unicode="R" horiz-adv-x="1357" d="M82 0q0 55 34 75.5t150 41.5v1112q-115 20 -146.5 40.5t-31.5 78.5h254q47 0 180 3t160 3q213 0 328.5 -90t115.5 -265q0 -117 -72.5 -217t-203.5 -151l213 -314q66 -98 122 -154.5t132 -88.5v-64q-47 -33 -113 -33q-74 0 -130 43t-140 166l-270 402q-46 -6 -95 -6 q-57 0 -118 8v-475q131 -23 188 -41v-74h-557zM451 698q70 -14 128 -14q41 0 75 7q84 16 137 41.5t82.5 72.5t41 89t11.5 89q0 266 -299 266q-129 0 -176 -6v-545z" />
<glyph unicode="S" horiz-adv-x="1103" d="M110 246q15 86 50 157h63q47 -106 62 -239q100 -68 254 -68q129 0 203.5 63.5t74.5 170.5q0 100 -49 154.5t-147 93.5q-45 18 -97.5 37.5t-88.5 34t-83 38.5q-211 107 -211 338q0 160 116 251t341 91q184 0 338 -33q13 -38 13 -86q0 -94 -48 -229h-61q-47 84 -70 207 q-85 26 -187 26h-8q-125 0 -191.5 -53t-66.5 -151q0 -137 164 -211q47 -23 205 -80q156 -57 234.5 -146.5t78.5 -236.5q0 -197 -127 -297.5t-346 -100.5q-250 0 -415 103q-8 41 -8 84q0 40 7 82z" />
<glyph unicode="T" horiz-adv-x="1294" d="M72 1251q0 63 12 97h1126q12 -33 13 -97q0 -113 -47 -229h-62q-41 90 -65 215h-308v-1124q113 -14 181 -35v-78h-560q2 55 41 79.5t154 37.5v1120h-311q-25 -125 -66 -215h-61q-47 117 -47 229z" />
<glyph unicode="U" horiz-adv-x="1579" d="M63 1348h574v-74q-47 -18 -205 -41v-684q0 -213 92 -325.5t299 -112.5q365 0 365 438v684q-158 23 -205 41v74h533q0 -55 -34 -76t-151 -41l-2 -696q0 -254 -141 -407t-381 -153q-274 0 -416.5 133.5t-142.5 426.5v696q-117 20 -151 40.5t-34 76.5z" />
<glyph unicode="V" d="M39 1348h536v-74q-32 -10 -190 -37l346 -1028q209 618 352 1028q-158 27 -190 37v74h473q0 -51 -27.5 -72t-115.5 -39l-394 -1108q-33 -94 -63.5 -120.5t-87.5 -26.5h-55l-441 1255q-86 18 -114.5 39.5t-28.5 71.5z" />
<glyph unicode="W" horiz-adv-x="2037" d="M39 1348h539v-74q-33 -10 -191 -37l305 -1028l283 901l-25 88q-10 32 -10 58q0 28 12 50q22 42 84 42h66l319 -1139l301 1028q-158 27 -190 37v74h467q0 -51 -28.5 -73t-115.5 -40l-333 -1104q-25 -82 -58.5 -113.5t-93.5 -31.5h-63l-271 915l-245 -770 q-29 -88 -61 -116.5t-93 -28.5h-64l-391 1251q-86 18 -114.5 39.5t-28.5 71.5z" />
<glyph unicode="X" horiz-adv-x="1390" d="M61 0q0 53 29 73.5t127 41.5l383 555l-377 565q-86 18 -114.5 39.5t-28.5 73.5h543v-74q-60 -19 -177 -37h-2l273 -424l282 424q-117 18 -176 37v74h467q0 -51 -28.5 -73t-114.5 -40l-361 -522l390 -600q94 -18 123.5 -40t29.5 -73h-547v74q57 18 189 41l-297 448 l-305 -448q131 -23 188 -41v-74h-496z" />
<glyph unicode="Y" horiz-adv-x="1265" d="M39 1348h541v-74q-35 -12 -189 -37l279 -565l284 565q-158 27 -190 37v74h463q0 -51 -28 -73t-114 -40l-348 -666v-452q119 -20 189 -43v-74h-561q0 55 34.5 76.5t153.5 42.5v409l-371 707q-86 18 -114.5 39.5t-28.5 73.5z" />
<glyph unicode="Z" horiz-adv-x="1193" d="M82 117l788 1120h-577q-29 -131 -66 -215h-61q-47 117 -47 229q0 63 12 97h791q68 0 108.5 -29t48.5 -57l8 -31l-800 -1120h649q23 127 63 215h62q47 -119 47 -228q0 -55 -16 -98h-844q-80 0 -119 36t-47 81z" />
<glyph unicode="[" horiz-adv-x="636" d="M195 -356v1812q20 27 50.5 33t116.5 6h203v-74q-20 -27 -51 -33t-117 -6h-43v-1626h211v-69q-18 -25 -53 -34t-115 -9h-202z" />
<glyph unicode="\" horiz-adv-x="1019" d="M141 1470h88l682 -1757q51 -133 15 -198h-88l-682 1757q-51 131 -15 198z" />
<glyph unicode="]" horiz-adv-x="636" d="M72 -283q20 27 51 33t117 6h43v1626h-211v70q18 25 53 34t115 9h202v-1812q-20 -27 -51 -33t-117 -6h-202v73z" />
<glyph unicode="^" horiz-adv-x="921" d="M72 788l233 449q29 51 45.5 72.5t49 37t85.5 15.5q37 0 74 -6q37 -66 142.5 -281t148.5 -287q-27 -27 -78 -47l-311 449l-311 -449q-51 20 -78 47z" />
<glyph unicode="_" horiz-adv-x="1136" d="M37 -100q20 27 52 34t116 7h895v-95q-20 -27 -52 -34t-116 -7h-895v95z" />
<glyph unicode="`" horiz-adv-x="819" d="M217 1397q0 41 32 63.5t87 20.5q121 -156 297 -324l-43 -51q-80 39 -125 62.5t-112.5 65.5t-101.5 83t-34 80z" />
<glyph unicode="a" horiz-adv-x="1011" d="M86 240q0 139 119 211.5t330 72.5q45 0 114 -4q2 72 2 105q0 119 -50 184t-140 65q-33 0 -60.5 -10t-56.5 -37.5t-41 -41t-42 -54.5t-32 -43q-85 14 -105 82q-4 14 -5 28q0 51 57 93q117 88 328 88q321 0 321 -330q0 -78 -7 -240.5t-7 -234.5q90 -24 156 -47v-64 q-60 -83 -152 -83h-2q-106 0 -149 143q-92 -145 -273 -146q-143 0 -224 75t-81 188zM272 262q0 -74 50.5 -112.5t134.5 -38.5q59 0 110 27.5t74 70.5l4 207q-46 2 -86 2q-123 0 -193 -22q-94 -30 -94 -134z" />
<glyph unicode="b" horiz-adv-x="1136" d="M6 1370v53q43 23 116 44t124 22q57 0 102 -25v-612q113 127 287 127q193 0 302.5 -133t109.5 -324q0 -242 -140.5 -392t-365.5 -150q-209 0 -369 98v1243q-104 16 -166 49zM348 147q82 -55 205 -55q137 0 222 103.5t85 283.5q0 164 -81 264.5t-218 100.5q-125 0 -213 -96 v-601z" />
<glyph unicode="c" horiz-adv-x="956" d="M82 453q0 225 139 375.5t373 150.5q170 0 252 -29q8 -23 8 -80q0 -100 -49 -198h-55q-41 70 -62 178q-53 16 -133 16q-141 0 -214 -100t-73 -246q0 -195 87.5 -300t232.5 -105q125 0 235 98q10 -8 29.5 -30.5t21.5 -30.5q-121 -174 -348 -175q-203 0 -323.5 139.5 t-120.5 336.5z" />
<glyph unicode="d" horiz-adv-x="1177" d="M88 451q0 225 144.5 376.5t381.5 151.5q102 0 179 -21l2 363q-104 14 -172 49v53q127 66 245 66q58 0 103 -25l-2 -1263q102 -33 143 -51v-68q-29 -37 -81 -67.5t-93 -30.5q-43 0 -119 145q-98 -152 -289 -152q-197 0 -319.5 133.5t-122.5 340.5zM274 487q0 -162 85 -266 t239 -104q123 0 195 96v606q-78 47 -197 47q-152 0 -237 -107.5t-85 -271.5z" />
<glyph unicode="e" horiz-adv-x="983" d="M82 451q0 246 128 387t327 141q184 0 275 -99.5t91 -248.5q0 -57 -6 -123h-629v-21q0 -145 77 -255q83 -116 245 -117q129 0 244 98q12 -8 30.5 -30.5t20.5 -30.5q-125 -174 -357 -175q-209 0 -327.5 139.5t-118.5 334.5zM276 610h457q0 262 -221 262q-109 0 -167 -75.5 t-69 -186.5z" />
<glyph unicode="f" horiz-adv-x="757" d="M68 0q0 53 30.5 73.5t137.5 41.5v725q-70 6 -152 30v74q63 8 152 10v56q0 217 121.5 346t328.5 129q182 0 182 -105q0 -63 -51 -90q-10 4 -42 19.5t-45 20.5t-37.5 13.5t-46 11.5t-46.5 3q-188 0 -188 -228v-176h303v-71q-18 -25 -53 -34t-115 -9h-135v-729 q133 -12 204 -37v-74h-548z" />
<glyph unicode="g" horiz-adv-x="1095" d="M43 -260q0 166 213 244q-121 55 -121 172q0 113 135 184q-166 86 -166 276q0 164 119 263.5t307 99.5q119 0 218 -55q154 59 233 59q41 0 65.5 -20.5t24.5 -57.5q0 -53 -18 -82q-137 18 -224 37q92 -82 93 -207q0 -186 -121 -275t-295 -89q-86 0 -160 20q-57 -25 -57 -86 q0 -82 125 -96q68 -6 165 -11t132 -7q319 -18 319 -261q0 -160 -139 -259t-406 -99q-213 0 -327.5 66.5t-114.5 183.5zM213 -211q0 -98 90 -142t207 -44q373 0 373 200q0 124 -211 136q-289 18 -334 24q-125 -55 -125 -174zM289 637q0 -123 62.5 -183.5t166.5 -60.5 q98 0 158.5 61.5t60.5 178.5q0 113 -62.5 177t-164.5 64q-106 0 -163.5 -65.5t-57.5 -171.5z" />
<glyph unicode="h" horiz-adv-x="1241" d="M49 0q0 53 31 73.5t137 41.5v1206q-104 16 -166 49v53q43 23 116 44t124 22q57 0 102 -25v-651q113 166 303 166q160 0 244 -101t84 -253v-512q98 -16 164 -39v-74h-508q0 53 30.5 73.5t137.5 41.5v460q0 133 -58.5 202t-166.5 69q-78 0 -138.5 -44t-91.5 -108v-581 q98 -16 164 -39v-74h-508z" />
<glyph unicode="i" horiz-adv-x="628" d="M68 0q0 53 31.5 73.5t138.5 41.5v696q-94 18 -148 47v53q121 66 232 66q47 0 92 -25v-839q96 -16 161 -39v-74h-507zM195 1290q0 47 33.5 81t80.5 34t81 -34t34 -81t-34 -80.5t-81 -33.5t-80.5 33.5t-33.5 80.5z" />
<glyph unicode="j" horiz-adv-x="571" d="M-205 -379q0 63 55 98q150 -75 206 -75h1q88 0 121 57t33 219v891q-94 18 -148 47v53q121 66 232 66q47 0 92 -25v-499l2 -430q0 -254 -107.5 -391.5t-273.5 -137.5q-104 0 -158.5 35t-54.5 92zM166 1290q0 47 33.5 81t81 34t81 -34t33.5 -81t-33.5 -80.5t-81 -33.5 t-81 33.5t-33.5 80.5z" />
<glyph unicode="k" horiz-adv-x="1075" d="M49 0q0 53 31 73.5t137 41.5v1206q-104 16 -166 49v53q43 23 116 44t124 22q57 0 102 -25v-932l334 314q-70 6 -145 18v68q86 22 161 22h7h165q82 0 105 -2v-67q-29 -41 -141 -43l-312 -283q70 -90 260 -307q109 -125 203 -172v-64q-49 -39 -112 -39q-59 0 -106.5 37 t-123.5 131l-295 361v-395q90 -12 164 -37v-74h-508z" />
<glyph unicode="l" horiz-adv-x="618" d="M53 0q0 53 31 73.5t137 41.5v1206q-104 16 -166 49v53q43 23 116 44t124 22q57 0 102 -25v-1353q90 -12 164 -37v-74h-508z" />
<glyph unicode="m" horiz-adv-x="1843" d="M68 0q0 53 30.5 73.5t137.5 41.5v696q-94 18 -148 47v53q121 66 231 66q45 0 91 -25v-141q115 168 297 168q209 0 282 -191q119 190 324 191q156 0 234.5 -100t78.5 -254v-512q98 -16 164 -39v-74h-508q0 53 30.5 73.5t137.5 41.5v460q0 270 -215 271q-135 0 -215 -150 v-583q96 -16 162 -39v-74h-500q0 53 29.5 74.5t132.5 40.5v460q0 133 -56.5 202t-158.5 69q-141 0 -217 -152v-581q98 -16 163 -39v-74h-507z" />
<glyph unicode="n" horiz-adv-x="1259" d="M68 0q0 53 30.5 73.5t137.5 41.5v696q-94 18 -148 47v53q121 66 231 66q45 0 91 -25v-141q109 168 303 168q160 0 244.5 -100t84.5 -254v-512q98 -16 164 -39v-74h-508q0 53 31 73.5t137 41.5v460q0 133 -58 202t-167 69q-154 0 -229 -152v-581q98 -16 163 -39v-74h-507z " />
<glyph unicode="o" horiz-adv-x="1120" d="M86 465q0 215 134 364.5t351 149.5q211 0 337 -131t126 -354q0 -215 -134 -366t-351 -151q-211 0 -337 133.5t-126 354.5zM276 479q0 -178 75 -284.5t212 -106.5q131 0 207 107.5t76 283.5q0 178 -75 283.5t-212 105.5q-129 0 -206 -106.5t-77 -282.5z" />
<glyph unicode="p" horiz-adv-x="1163" d="M33 -485q0 53 30.5 73.5t137.5 40.5v1182q-94 18 -148 47v53q121 66 232 66q47 0 92 -25v-100q109 127 280 127q197 0 306.5 -134t109.5 -323q0 -240 -141 -391t-365 -151h-9q-99 0 -181 22v-375q100 -14 188 -39v-73h-532zM377 145q78 -53 203 -53q139 0 223 103.5 t84 283.5q0 164 -79 264.5t-216 100.5q-131 0 -215 -96v-603z" />
<glyph unicode="q" horiz-adv-x="1140" d="M88 438q0 246 148.5 393.5t375.5 147.5q203 0 357 -96v-1256q96 -16 161 -39v-73h-526q0 53 34 73.5t155 40.5v471q-95 -120 -272 -120h-3q-197 0 -313.5 135t-116.5 323zM274 483q0 -160 88.5 -263t225.5 -103q121 0 205 96v606q-72 47 -203 47q-137 0 -226.5 -103.5 t-89.5 -279.5z" />
<glyph unicode="r" horiz-adv-x="808" d="M68 0q0 53 30.5 73.5t137.5 41.5v696q-94 18 -148 47v53q121 66 231 66q48 0 93 -25v-192q74 115 127 167t116 52q43 0 70 -25.5t27 -68.5q0 -57 -35 -103q-51 3 -89 3q-19 0 -36 -1q-49 -2 -89 -25.5t-91 -86.5v-559q94 -14 180 -39v-74h-524z" />
<glyph unicode="s" horiz-adv-x="874" d="M92 123q0 90 49 192h56q37 -72 59 -190q66 -43 182 -43q190 0 191 156q0 59 -35 93t-117 60q-141 49 -164 58q-196 74 -196 260q0 125 94 197.5t260 72.5q164 0 268 -31q8 -29 9 -69q0 -78 -50 -191h-55q-33 63 -55 166q-53 20 -129 20q-180 0 -180 -131q0 -96 108 -135 q37 -14 95.5 -32.5t80.5 -26.5q115 -41 169 -100.5t54 -178.5q0 -133 -96 -213t-260 -80q-201 0 -330 76q-8 27 -8 70z" />
<glyph unicode="t" horiz-adv-x="794" d="M47 870v74q53 6 146 10q10 106 34.5 156.5t54 62t93.5 11.5q-4 -98 -6 -230h383v-71q-18 -25 -53 -34t-115 -9h-215q-4 -410 -4 -549q0 -84 40.5 -131t116.5 -47q84 0 191 63q8 -4 25.5 -31.5t21.5 -38.5q-33 -45 -116 -87t-173 -42q-283 0 -283 293q0 76 2.5 285 t2.5 285q-78 8 -146 30z" />
<glyph unicode="u" horiz-adv-x="1181" d="M53 858v53q121 66 230 66q47 0 92 -25q-6 -326 -6 -587q0 -121 54 -186.5t152 -65.5q147 0 230 149l6 547q-100 14 -164 49v53q121 66 248 66q47 0 92 -25q-2 -164 -3 -414.5t-3 -338.5q88 -29 131 -49v-68q-33 -39 -85 -68.5t-93 -29.5q-49 0 -105 172 q-125 -178 -319 -179q-152 0 -234.5 92.5t-82.5 264.5q0 201 6 477q-92 18 -146 47z" />
<glyph unicode="v" horiz-adv-x="1026" d="M10 874v74q76 10 174 10h95q102 0 167 -2v-71q-37 -29 -141 -33l238 -723l237 723q-106 4 -139 33v71q66 2 168 2h33q102 0 174 -10v-74q-49 -14 -105 -22l-272 -770q-18 -53 -45 -73.5t-72 -20.5h-106l-303 864q-51 8 -103 22z" />
<glyph unicode="w" horiz-adv-x="1540" d="M10 874v74q72 10 172 10h97q102 0 167 -2v-71q-37 -29 -141 -33l223 -709l197 605l-10 34q-12 38 -12 70q-1 34 13 62q26 54 113 55h25l227 -826l219 709q-106 4 -139 33v71q66 2 168 2h29q100 0 172 -10v-74q-43 -14 -105 -22l-241 -762q-20 -59 -47 -80.5t-86 -21.5 h-86q-25 66 -54.5 161t-69.5 230t-59 199q-82 -248 -157 -488q-20 -59 -51 -79.5t-89 -22.5h-77l-295 864q-61 10 -103 22z" />
<glyph unicode="x" horiz-adv-x="1122" d="M41 0q0 49 26.5 70.5t112.5 38.5l295 358l-291 385q-70 8 -116 22v74q72 10 168 10h124q102 0 168 -2v-71q-35 -29 -133 -33l187 -256l211 256q-94 4 -129 33v71q66 2 167 2h91q63 0 135 -10v-74q-47 -14 -119 -22l-289 -348l291 -395q84 -16 141 -35v-74h-483 q0 49 27.5 68.5t122.5 37.5l-205 271l-224 -268q102 -18 150 -35v-74h-428z" />
<glyph unicode="y" horiz-adv-x="1021" d="M10 874v74q72 10 170 10h99q102 0 167 -2v-71q-37 -29 -141 -33l238 -668l235 668h-2q-109 4 -141 33v71q66 2 168 2h37q100 0 172 -10v-74q-41 -12 -103 -22q-129 -371 -291 -770q-80 -197 -149.5 -325t-124.5 -180t-92 -68.5t-80 -16.5q-66 0 -98 38q-27 34 -27 78v11 q18 6 68.5 25.5t62.5 24.5t48 21.5t48.5 29t41 35t46 48t43 62.5t52.5 84l-346 903q-57 8 -101 22z" />
<glyph unicode="z" horiz-adv-x="915" d="M86 92l539 770h-361q-16 -76 -63 -180h-56q-15 30 -33 98q-16 61 -16 97v8q0 49 10 73h619q47 0 75.5 -22.5t35.5 -42.5l4 -23l-553 -772h397q23 96 64 189h55q41 -111 41 -205q0 -47 -15 -82h-628q-49 0 -78 22.5t-33 47.5z" />
<glyph unicode="{" horiz-adv-x="700" d="M113 514v115q94 0 124.5 44t30.5 120q0 55 -18.5 192t-18.5 201q0 150 68 229.5t186 79.5q96 0 164 -41v-61h-71q-188 0 -189 -187q0 -84 15.5 -209t15.5 -194q0 -184 -144 -228q143 -47 144 -233q0 -72 -15.5 -197t-15.5 -206q0 -100 45 -146.5t144 -46.5h71v-61 q-76 -41 -160 -41q-137 0 -197.5 88t-60.5 219q0 63 18.5 203.5t18.5 193.5q0 78 -29.5 122t-125.5 44z" />
<glyph unicode="|" horiz-adv-x="714" d="M291 -508v1829q0 84 7 115.5t32 52.5h94v-1829q0 -84 -7 -115.5t-34 -52.5h-92z" />
<glyph unicode="}" horiz-adv-x="700" d="M51 -254h72q98 0 143 46t45 147q0 82 -15 206.5t-15 196.5q0 186 143 233q-143 43 -143 228q0 70 15 194.5t15 208.5q0 186 -188 187h-72v61q68 41 164 41q119 0 186.5 -80t67.5 -229q0 -63 -18.5 -200.5t-18.5 -192.5q0 -35 5 -60.5t19.5 -51.5t47.5 -39t84 -13v-115 q-96 0 -126 -44t-30 -122q0 -53 18.5 -193.5t18.5 -203.5q0 -131 -60.5 -219t-197.5 -88q-84 0 -160 41v61z" />
<glyph unicode="~" horiz-adv-x="995" d="M61 623q14 133 77 215t167 82q70 0 121 -27t119 -82q6 -4 24.5 -20.5t26.5 -22.5t25.5 -18.5t29 -17.5t27.5 -10t33 -5q102 0 143 180l80 -20q-14 -133 -77.5 -215t-166.5 -82q-112 -1 -239 108q-4 4 -28 24.5t-34 28t-29.5 19.5t-38 17t-36.5 5q-102 0 -144 -180z" />
<glyph unicode="&#xa1;" horiz-adv-x="579" d="M180 899q0 45 36 80t83 35q45 0 81 -35t36 -80q0 -47 -35 -83t-82 -36t-83 36t-36 83zM182 -164q0 111 70 772h90q4 -76 18.5 -289t23.5 -396t9 -296q-61 -4 -71 -4q-41 0 -69 12.5t-42 25.5t-20.5 48t-7.5 56.5t-1 70.5z" />
<glyph unicode="&#xa2;" horiz-adv-x="966" d="M86 469q0 190 112.5 329.5t307.5 172.5v18q0 84 7 116t34 52h67v-178q289 0 289 -119q0 -63 -63 -98q-6 4 -46 26.5t-59.5 32.5t-55.5 23.5t-65 15.5v-751q63 2 127 33.5t103 66.5q10 -4 30.5 -25.5t24.5 -33.5q-109 -141 -285 -166v-15q0 -84 -7 -115.5t-34 -52.5h-67 v179q-195 14 -307.5 145t-112.5 344zM270 504q0 -319 236 -383v731q-113 -29 -174.5 -123t-61.5 -225z" />
<glyph unicode="&#xa3;" horiz-adv-x="1181" d="M102 16q76 104 160 136q23 94 23 331v125h-25q-68 4 -139 29v74q70 8 139 8h25v231q0 199 113.5 309.5t334.5 110.5q315 0 316 -168q0 -43 -31 -75.5t-70 -45.5q-102 184 -264 185q-117 0 -166 -77t-49 -237v-233h371v-72q-20 -25 -52 -32t-116 -7h-203v-198 q0 -180 -107 -246q59 2 216 -16.5t229 -18.5q162 0 252 102l41 -32q-23 -80 -100.5 -151t-217.5 -71q-68 0 -220 16.5t-247 16.5q-100 0 -182 -33z" />
<glyph unicode="&#xa5;" horiz-adv-x="1314" d="M49 1348h553v-74q-75 -21 -190 -37l278 -494l281 494q-115 16 -191 37v74h486q0 -53 -31 -74t-131 -39l-303 -524h284v-66q-20 -27 -52 -34t-115 -7h-164v-162h331v-65q-20 -27 -52 -34t-115 -7h-164v-219q119 -20 188 -43v-74h-561q0 55 35 76.5t153 42.5v217h-331v67 q20 25 52 32t116 7h163v162h-331v68q20 25 52 32t116 7h114l-313 524q-98 18 -128 38.5t-30 74.5z" />
<glyph unicode="&#xa6;" horiz-adv-x="542" d="M205 272q0 84 7 116t32 52h94v-719q0 -84 -7 -115.5t-34 -51.5h-92v718zM205 647v680q0 84 7 116t32 52h94v-680q0 -84 -7 -115.5t-34 -52.5h-92z" />
<glyph unicode="&#xa7;" horiz-adv-x="1134" d="M113 606q0 94 35.5 155.5t101.5 112.5q-37 68 -37 160q0 154 106.5 244t280.5 90q324 0 324 -172q0 -90 -119 -121q-61 190 -230 191q-102 0 -156 -50.5t-54 -134.5q0 -80 38.5 -131t135.5 -94q41 -18 103.5 -48t107.5 -50q139 -63 205.5 -136t66.5 -208 q0 -162 -135 -269q28 -63 28 -149q0 -182 -107.5 -280.5t-285.5 -98.5q-174 0 -276.5 78t-102.5 190q0 72 45 109t111 33q4 -305 244 -308q98 -2 159.5 55.5t61.5 162.5q0 96 -46 149t-161 107q-20 8 -75.5 31.5t-94.5 41.5q-129 63 -201.5 140t-72.5 200zM262 674 q0 -82 40 -135.5t132 -96.5q35 -16 100.5 -45t104.5 -47q147 -72 199 -127q33 53 32 115q0 92 -44 151.5t-162 114.5l-218 101q-88 41 -145 98q-39 -55 -39 -129z" />
<glyph unicode="&#xa8;" horiz-adv-x="819" d="M96 1282q0 45 33 77t80 32q45 0 75.5 -32t30.5 -77q0 -43 -31.5 -74.5t-74.5 -31.5q-45 0 -79 32.5t-34 73.5zM506 1282q0 45 31.5 77t76.5 32t78 -32t33 -77q0 -43 -33 -74.5t-78 -31.5t-76.5 32.5t-31.5 73.5z" />
<glyph unicode="&#xa9;" horiz-adv-x="1558" d="M102 672q0 305 193.5 500.5t482.5 195.5q291 0 484.5 -195.5t193.5 -500.5q0 -303 -193.5 -499t-484.5 -196q-289 0 -482.5 196t-193.5 499zM219 672q0 -260 158 -430t401 -170q246 0 403.5 169t157.5 431q0 264 -156.5 433t-404.5 169q-244 0 -401.5 -169t-157.5 -433z M432 672q0 176 110.5 290.5t291.5 114.5q137 0 204 -22q6 -20 6 -62q0 -96 -40 -196h-54q-41 76 -53 168q-31 12 -80 12q-104 0 -165.5 -75t-61.5 -214q0 -121 62.5 -204t166.5 -83q23 0 43.5 3.5t39 10.5t31.5 13t27.5 17.5t21.5 16.5t19 15l13 10q25 -10 53 -45 q-37 -70 -106.5 -115.5t-165.5 -45.5q-168 0 -265.5 106.5t-97.5 284.5z" />
<glyph unicode="&#xaa;" horiz-adv-x="899" d="M102 784q0 106 93.5 164t269.5 58q25 0 82 -5v80q0 190 -141 191q-31 0 -62 -19.5t-45 -35t-43 -55.5t-31 -44q-68 10 -89 65.5t38 104.5q90 72 268 72q258 0 258 -262q0 -61 -6 -186.5t-6 -180.5q51 -12 119 -37v-49q-18 -29 -54 -50.5t-65 -21.5q-86 0 -125 113 q-70 -115 -219 -115q-111 0 -176.5 57.5t-65.5 155.5zM264 797q0 -53 38 -84t99 -31q94 0 138 68l4 163q-143 8 -211 -15.5t-68 -100.5z" />
<glyph unicode="&#xab;" horiz-adv-x="1030" d="M74 512q0 14 2 24.5t7 21.5t8 18.5t13.5 17.5t13.5 14t17.5 17.5t18.5 17.5l292 266l62 -63l-260 -324l270 -317l-55 -68l-381 312q-8 37 -8 63zM504 512q0 14 2 24.5t7 21.5t8 18.5t13.5 17.5t13.5 14t17.5 17.5t18.5 17.5l293 266l61 -63l-260 -324l270 -317l-55 -68 l-381 312q-8 37 -8 63z" />
<glyph unicode="&#xac;" horiz-adv-x="1204" d="M82 530v95q68 12 190 12h834v-434h-88q-59 37 -60 133v168h-710q-80 0 -166 26z" />
<glyph unicode="&#xad;" horiz-adv-x="743" d="M133 463v112q20 27 52 34t116 7h309v-112q-20 -27 -52 -34t-116 -7h-309z" />
<glyph unicode="&#xae;" horiz-adv-x="1071" d="M84 1013.5q0 194.5 129 322.5t322 128q190 0 321 -126t131 -316q0 -195 -130 -323t-320 -128q-195 0 -324 124t-129 318.5zM180 1018q0 -162 98.5 -265.5t258.5 -103.5q158 0 256 103.5t98 265.5q0 160 -100.5 264t-258.5 104q-160 0 -256 -104t-96 -264zM332 799 q2 27 12 38t49 19v358q-53 2 -49 56h70q18 0 63 1t68 1q172 0 172 -133q0 -47 -25.5 -82t-66.5 -47l67 -95q37 -51 82 -69v-35q-20 -16 -53 -16q-57 0 -103 65q-23 33 -49 75t-34 52q-23 -4 -52 0v-131q29 -4 60 -12v-45h-211zM483 1051q74 -10 107 17.5t33 72.5 q-1 73 -91 73q-25 0 -49 -2v-161z" />
<glyph unicode="&#xaf;" horiz-adv-x="819" d="M150 1196v90q20 27 51.5 34t115.5 7h355v-90q-20 -27 -52 -34t-116 -7h-354z" />
<glyph unicode="&#xb0;" horiz-adv-x="649" d="M51 1100q0 117 80 193.5t195 76.5q121 0 196.5 -69.5t75.5 -186.5q0 -115 -77 -194.5t-191 -79.5q-121 0 -200 68.5t-79 191.5zM174 1102q0 -80 46 -123t110 -43q61 0 103 46t42 126q0 82 -44 124t-109 42q-63 0 -105.5 -45t-42.5 -127z" />
<glyph unicode="&#xb1;" horiz-adv-x="1079" d="M102 -59q68 12 191 12h684v-68q-32 -49 -141 -49h-568q-80 0 -166 27v78zM102 487v95q68 12 191 12h170v229q0 109 49 142h104v-371h361v-84q-33 -49 -141 -49h-220v-250q0 -109 -49 -141h-104v391h-195q-80 0 -166 26z" />
<glyph unicode="&#xb2;" horiz-adv-x="731" d="M113 1223q0 59 66.5 100t172.5 41q115 0 179.5 -53.5t64.5 -145.5q0 -106 -85 -189t-228 -169h335v-78q-23 -37 -81 -37h-420v86q14 10 48 37t66.5 52.5t59.5 50.5q147 139 147 258q0 45 -24.5 74.5t-69.5 29.5q-51 0 -82 -31.5t-51 -103.5q-98 8 -98 78z" />
<glyph unicode="&#xb3;" horiz-adv-x="727" d="M113 801q0 41 30.5 64.5t73.5 27.5q31 -129 133 -129q49 0 79 28.5t30 73.5q0 68 -47 94.5t-158 26.5v82q92 14 133 44t41 83q0 39 -22.5 60.5t-59.5 21.5q-84 0 -121 -117q-45 0 -71.5 21.5t-26.5 52.5q0 57 64.5 93t156.5 36q111 0 172.5 -42t61.5 -114q0 -61 -45 -99 t-109 -52q80 -6 133 -52.5t53 -121.5q0 -100 -78.5 -153.5t-193.5 -53.5q-100 0 -164.5 34.5t-64.5 90.5z" />
<glyph unicode="&#xb4;" horiz-adv-x="819" d="M186 1155q168 162 297 326q55 2 87 -20.5t32 -63.5q0 -39 -33.5 -80t-103.5 -83t-113 -65.5t-125 -62.5z" />
<glyph unicode="&#xb5;" horiz-adv-x="1157" d="M164 213l8 727q106 45 182 21q-2 -84 -8 -257.5t-6 -338.5q0 -125 54.5 -188.5t152.5 -63.5q147 0 229 149l6 678q106 45 183 21q-13 -553 -13 -762q88 -29 131 -49v-68q-33 -39 -85 -68.5t-93 -29.5q-49 0 -104 172q-125 -178 -320 -179q-127 0 -215 84 q35 -322 195 -495q-27 -86 -121 -86q-109 0 -142.5 176t-33.5 557z" />
<glyph unicode="&#xb6;" horiz-adv-x="1081" d="M86 1020q0 158 105.5 243t293.5 85h166v-1215q0 -96 -55 -133h-80v674q-23 -2 -57 -2q-164 0 -268.5 95t-104.5 253zM215 -109q0 82 84 111q100 -154 254 -154q123 0 186.5 79.5t63.5 226.5v1060q0 96 55 134h80v-1145q0 -229 -108.5 -351t-288.5 -122q-150 0 -238 46 t-88 115z" />
<glyph unicode="&#xb7;" horiz-adv-x="495" d="M131 489.5q0 49.5 34 83t83 33.5t83 -33.5t34 -83t-34 -83t-83 -33.5t-83 33.5t-34 83z" />
<glyph unicode="&#xb8;" horiz-adv-x="819" d="M176 -360q0 39 33 60t76 21q23 -66 51.5 -94t77.5 -28q39 0 63.5 28.5t24.5 73.5q0 119 -205 127v43q41 55 137 129h86l-84 -119q209 -12 209 -172q0 -86 -66.5 -136t-181.5 -50q-221 0 -221 117z" />
<glyph unicode="&#xb9;" horiz-adv-x="638" d="M113 692q0 45 27.5 67t113.5 34v462q-51 6 -115 25v47q88 39 166 39q59 0 94 -20v-555q80 -16 127 -35v-64h-413z" />
<glyph unicode="&#xba;" horiz-adv-x="964" d="M102 954q0 170 107.5 288t284.5 118q170 0 269 -103.5t99 -279.5q0 -170 -107.5 -288t-281.5 -118q-172 0 -271.5 103.5t-99.5 279.5zM266 967q0 -135 58.5 -218t160.5 -83q96 0 155.5 84t59.5 217q0 135 -58 218t-161 83q-96 0 -155.5 -84t-59.5 -217z" />
<glyph unicode="&#xbb;" horiz-adv-x="1030" d="M82 203l270 317l-260 324l62 63l292 -266q4 -4 14.5 -13.5t14.5 -13.5t12.5 -12t11.5 -13t9 -12.5t8 -14.5t5 -15t4 -17.5t1 -19.5q0 -27 -8 -64l-381 -311zM512 203l270 317l-260 324l62 63l293 -266q4 -4 14 -13.5t14 -13.5t12.5 -12t11.5 -13t9 -12.5t8 -14.5t5 -15 t4 -17.5t1 -19.5q0 -27 -8 -64l-381 -311z" />
<glyph unicode="&#xbc;" horiz-adv-x="1527" d="M113 692q0 45 27.5 67t113.5 34v462q-51 6 -115 25v47q88 39 166 39q59 0 94 -20v-555q80 -16 127 -35v-64h-413zM256 0q-23 72 68 188l899 1160h67q20 -76 -67 -189l-899 -1159h-68zM836 162q-4 43 8 74.5t53 89.5l201 280q47 63 102 64h98v-398h117v-67 q-23 -43 -94 -43h-23v-78q61 -10 95 -21v-63h-340q0 72 108 86v76h-325zM971 272h190v273z" />
<glyph unicode="&#xbd;" horiz-adv-x="1562" d="M113 692q0 45 27.5 67t113.5 34v462q-51 6 -115 25v47q88 39 166 39q59 0 94 -20v-555q80 -16 127 -35v-64h-413zM254 0q-23 72 68 188l899 1160h67q20 -76 -67 -189l-899 -1159h-68zM944 530q0 59 66.5 100.5t173.5 41.5q115 0 179 -53.5t64 -145.5q0 -106 -85 -189 t-228 -169h336v-78q-23 -37 -82 -37h-420v86q14 10 48 37t67 52.5t59 49.5q147 139 148 258q0 45 -24.5 75t-69.5 30q-51 0 -82 -32t-52 -103q-98 8 -98 77z" />
<glyph unicode="&#xbe;" horiz-adv-x="1558" d="M113 801q0 41 30.5 64.5t73.5 27.5q31 -129 133 -129q49 0 79 28.5t30 73.5q0 68 -47 94.5t-158 26.5v82q92 14 133 44t41 83q0 39 -22.5 60.5t-59.5 21.5q-84 0 -121 -117q-45 0 -71.5 21.5t-26.5 52.5q0 57 64.5 93t156.5 36q111 0 172.5 -42t61.5 -114q0 -61 -45 -99 t-109 -52q80 -6 133 -52.5t53 -121.5q0 -100 -78.5 -153.5t-193.5 -53.5q-100 0 -164.5 34.5t-64.5 90.5zM287 0q-23 72 67 188l899 1160h68q20 -76 -68 -189l-899 -1159h-67zM866 162q-4 43 8.5 74.5t53.5 89.5l200 280q47 63 103 64h98v-398h117v-67q-23 -43 -94 -43h-23 v-78q61 -10 94 -21v-63h-340q0 72 109 86v76h-326zM1001 272h191v273z" />
<glyph unicode="&#xbf;" horiz-adv-x="843" d="M41 -72q0 84 31.5 151.5t91 116t120 80t142.5 62.5v289h90q80 -104 80 -176q0 -55 -29.5 -95.5t-103.5 -93.5q-117 -86 -169 -155.5t-52 -167.5q0 -96 49 -154.5t155 -58.5q45 0 85 19t62.5 36.5t50.5 63.5t33 56.5t25 55.5q111 -16 111 -131q0 -88 -96 -148.5 t-289 -60.5q-184 0 -285.5 82t-101.5 229zM358 899q0 49 34 82t85 33q49 0 82 -33t33 -82q0 -51 -33 -85t-82 -34q-51 0 -85 34t-34 85z" />
<glyph unicode="&#xc0;" d="M29 0q0 49 28.5 70.5t114.5 42.5l422 1251h96q47 0 78 -9t50.5 -35t28.5 -44.5t23 -63.5l363 -1101q88 -20 115.5 -40t27.5 -71h-522v74q81 23 190 37l-118 358h-500l-117 -358q113 -16 191 -37v-74h-471zM438 1667q0 68 78 88q230 -165 367 -237l-23 -54 q-422 61 -422 203zM463 580h426l-213 647z" />
<glyph unicode="&#xc1;" d="M29 0q0 49 28.5 70.5t114.5 42.5l422 1251h96q47 0 78 -9t50.5 -35t28.5 -44.5t23 -63.5l363 -1101q88 -20 115.5 -40t27.5 -71h-522v74q81 23 190 37l-118 358h-500l-117 -358q113 -16 191 -37v-74h-471zM463 580h426l-213 647zM496 1518q143 76 364 237q78 -18 78 -88 q0 -76 -118 -127t-302 -76z" />
<glyph unicode="&#xc2;" d="M29 0q0 49 28.5 70.5t114.5 42.5l422 1251h96q47 0 78 -9t50.5 -35t28.5 -44.5t23 -63.5l363 -1101q88 -20 115.5 -40t27.5 -71h-522v74q81 23 190 37l-118 358h-500l-117 -358q113 -16 191 -37v-74h-471zM403 1493q68 86 168 199q41 45 67 59t69 14q32 0 61 -8 q96 -113 209 -264l-57 -49q-109 76 -230 178q-225 -176 -229 -178zM463 580h426l-213 647z" />
<glyph unicode="&#xc3;" d="M29 0q0 49 28.5 70.5t114.5 42.5l422 1251h96q47 0 78 -9t50.5 -35t28.5 -44.5t23 -63.5l363 -1101q88 -20 115.5 -40t27.5 -71h-522v74q81 23 190 37l-118 358h-500l-117 -358q113 -16 191 -37v-74h-471zM383 1511q76 184 207 185q57 0 132 -45t116 -45t68.5 20.5 t64.5 65.5l57 -31q-33 -80 -84 -133t-119 -53q-61 0 -136 44t-114 44q-63 0 -133 -84zM463 580h426l-213 647z" />
<glyph unicode="&#xc4;" d="M29 0q0 49 28.5 70.5t114.5 42.5l422 1251h96q47 0 78 -9t50.5 -35t28.5 -44.5t23 -63.5l363 -1101q88 -20 115.5 -40t27.5 -71h-522v74q81 23 190 37l-118 358h-500l-117 -358q113 -16 191 -37v-74h-471zM371 1599q0 45 32.5 78t77.5 33t77 -31.5t32 -79.5 q0 -41 -32 -72.5t-77 -31.5t-77.5 31.5t-32.5 72.5zM463 580h426l-213 647zM788 1599q0 47 31 79t76 32q47 0 79 -31.5t32 -79.5q0 -41 -33 -72.5t-78 -31.5q-43 0 -75 31.5t-32 72.5z" />
<glyph unicode="&#xc5;" d="M29 0q0 49 28.5 70.5t114.5 42.5l422 1251h96q47 0 78 -9t50.5 -35t28.5 -44.5t23 -63.5l363 -1101q88 -20 115.5 -40t27.5 -71h-522v74q81 23 190 37l-118 358h-500l-117 -358q113 -16 191 -37v-74h-471zM463 580h426l-213 647zM485 1618q0 76 55.5 126t151.5 50 q90 0 148.5 -44t58.5 -126q0 -78 -56.5 -128t-148.5 -50q-90 0 -149.5 45t-59.5 127zM586 1620q0 -45 30.5 -72.5t77.5 -27.5t77 29.5t30 72.5q0 45 -32 73.5t-79 28.5t-75.5 -29.5t-28.5 -74.5z" />
<glyph unicode="&#xc6;" horiz-adv-x="1859" d="M33 0q0 51 29.5 72.5t121.5 40.5l615 1116q-115 20 -146.5 41t-31.5 78h1122q12 -33 12 -93q0 -104 -47 -221h-61q-43 94 -66 203h-444v-465h446v-61q-29 -57 -108 -58h-338v-542h448q23 127 64 215h61q47 -119 47 -228q0 -55 -16 -98h-967q0 57 32 77.5t146 41.5v321 h-446l-180 -329q115 -16 190 -37v-74h-483zM569 557h383v696z" />
<glyph unicode="&#xc7;" horiz-adv-x="1273" d="M109 659q0 305 189 507t531 202q88 0 190.5 -11t139.5 -24q12 -41 12 -100q0 -100 -55 -236h-61q-47 100 -70 228q-98 31 -207 30q-217 0 -341 -145t-124 -422q0 -250 125 -412.5t342 -162.5q182 0 348 149q40 -24 54 -57q-139 -213 -414 -228l-68 -96q209 -12 209 -172 q0 -86 -66.5 -136t-180.5 -50q-221 0 -222 117q0 39 33 60t76 21q23 -66 51.5 -94t77.5 -28q39 0 63.5 28.5t24.5 73.5q0 119 -205 127v43q29 41 113 109q-264 20 -414.5 206.5t-150.5 472.5z" />
<glyph unicode="&#xc8;" horiz-adv-x="1167" d="M82 0q0 57 31.5 77.5t146.5 41.5v1110q-115 20 -146.5 40.5t-31.5 78.5h969q12 -33 12 -93q0 -104 -47 -221h-62q-43 94 -65 203h-445v-465h447v-61q-29 -57 -109 -58h-338v-542h449q23 127 63 215h62q47 -119 47 -228q0 -55 -16 -98h-967zM365 1667q0 68 77 88 q230 -165 367 -237l-23 -54q-422 61 -421 203z" />
<glyph unicode="&#xc9;" horiz-adv-x="1167" d="M82 0q0 57 31.5 77.5t146.5 41.5v1110q-115 20 -146.5 40.5t-31.5 78.5h969q12 -33 12 -93q0 -104 -47 -221h-62q-43 94 -65 203h-445v-465h447v-61q-29 -57 -109 -58h-338v-542h449q23 127 63 215h62q47 -119 47 -228q0 -55 -16 -98h-967zM399 1518q143 76 365 237 q78 -18 78 -88q0 -76 -118 -127t-302 -76z" />
<glyph unicode="&#xca;" horiz-adv-x="1167" d="M82 0q0 57 31.5 77.5t146.5 41.5v1110q-115 20 -146.5 40.5t-31.5 78.5h969q12 -33 12 -93q0 -104 -47 -221h-62q-43 94 -65 203h-445v-465h447v-61q-29 -57 -109 -58h-338v-542h449q23 127 63 215h62q47 -119 47 -228q0 -55 -16 -98h-967zM311 1493q68 86 168 199 q41 45 66.5 59t68.5 14q33 0 62 -8q96 -113 209 -264l-58 -49q-109 76 -229 178q-225 -176 -229 -178z" />
<glyph unicode="&#xcb;" horiz-adv-x="1167" d="M82 0q0 57 31.5 77.5t146.5 41.5v1110q-115 20 -146.5 40.5t-31.5 78.5h969q12 -33 12 -93q0 -104 -47 -221h-62q-43 94 -65 203h-445v-465h447v-61q-29 -57 -109 -58h-338v-542h449q23 127 63 215h62q47 -119 47 -228q0 -55 -16 -98h-967zM274 1599q0 45 33 78t78 33 t77 -31.5t32 -79.5q0 -41 -32 -72.5t-77 -31.5t-78 31.5t-33 72.5zM692 1599q0 47 31 79t76 32t77.5 -31.5t32.5 -79.5q0 -41 -32.5 -72.5t-77.5 -31.5q-43 0 -75 31.5t-32 72.5z" />
<glyph unicode="&#xcc;" horiz-adv-x="724" d="M82 0q0 55 35 76.5t153 42.5v1110q-119 20 -153.5 41.5t-34.5 77.5h561v-74q-69 -23 -188 -43v-1114q119 -20 188 -43v-74h-561zM133 1667q0 68 78 88q230 -165 367 -237l-23 -54q-422 61 -422 203z" />
<glyph unicode="&#xcd;" horiz-adv-x="724" d="M82 0q0 55 35 76.5t153 42.5v1110q-119 20 -153.5 41.5t-34.5 77.5h561v-74q-69 -23 -188 -43v-1114q119 -20 188 -43v-74h-561zM141 1518q143 76 365 237q78 -18 78 -88q0 -76 -118 -127t-302 -76z" />
<glyph unicode="&#xce;" horiz-adv-x="724" d="M76 1493q68 86 168 199q41 45 66.5 59t68.5 14q32 0 61 -8q96 -113 209 -264l-57 -49q-109 76 -230 178q-225 -176 -229 -178zM82 0q0 55 35 76.5t153 42.5v1110q-119 20 -153.5 41.5t-34.5 77.5h561v-74q-69 -23 -188 -43v-1114q119 -20 188 -43v-74h-561z" />
<glyph unicode="&#xcf;" horiz-adv-x="724" d="M37 1599q0 45 32.5 78t78 33t77 -31.5t31.5 -79.5q0 -41 -31.5 -72.5t-77 -31.5t-78 31.5t-32.5 72.5zM82 0q0 55 35 76.5t153 42.5v1110q-119 20 -153.5 41.5t-34.5 77.5h561v-74q-69 -23 -188 -43v-1114q119 -20 188 -43v-74h-561zM455 1599q0 47 30.5 79t75.5 32 t78 -31.5t33 -79.5q0 -41 -33 -72.5t-78 -31.5q-43 0 -74.5 31.5t-31.5 72.5z" />
<glyph unicode="&#xd0;" horiz-adv-x="1517" d="M82 0q0 57 31.5 77.5t146.5 41.5v516h-160v70q18 25 49 31.5t111 6.5v486q-115 20 -146.5 40.5t-31.5 78.5h635q315 0 503.5 -164t188.5 -477q0 -317 -183.5 -512t-512.5 -195h-631zM444 170q0 -33 13.5 -46t46.5 -13h174q526 0 526 589q0 246 -130 391.5t-394 145.5 h-236v-494h406v-69q-20 -25 -52 -32t-116 -7h-238v-465z" />
<glyph unicode="&#xd1;" horiz-adv-x="1570" d="M82 0q0 55 33.5 76t150.5 41v1112q-106 20 -136 40.5t-30 78.5h222q57 0 89.5 -16.5t63.5 -59.5l705 -1028v989q-131 23 -189 41v74h508q0 -55 -33.5 -76t-150.5 -41v-1022q0 -68 -7.5 -111t-37 -77.5t-84.5 -34.5h-39l-746 1073v-944q135 -23 191 -41v-74h-510z M496 1511q76 184 206 185q57 0 132 -45t116 -45t69 20.5t64 65.5l58 -31q-33 -80 -84 -133t-119 -53q-61 0 -136 44t-114 44q-63 0 -133 -84z" />
<glyph unicode="&#xd2;" horiz-adv-x="1533" d="M109 659q0 313 190 512t477 199q283 0 466 -178t183 -498q0 -313 -193.5 -515t-481.5 -202q-281 0 -461 180t-180 502zM313 672q0 -264 126 -420t329 -156q205 0 329 160t124 426q0 264 -126 417.5t-331 153.5t-328 -156.5t-123 -424.5zM537 1667q0 68 77 88 q230 -165 367 -237l-23 -54q-422 61 -421 203z" />
<glyph unicode="&#xd3;" horiz-adv-x="1533" d="M109 659q0 313 190 512t477 199q283 0 466 -178t183 -498q0 -313 -193.5 -515t-481.5 -202q-281 0 -461 180t-180 502zM313 672q0 -264 126 -420t329 -156q205 0 329 160t124 426q0 264 -126 417.5t-331 153.5t-328 -156.5t-123 -424.5zM573 1518q143 76 365 237 q78 -18 78 -88q0 -76 -118 -127t-302 -76z" />
<glyph unicode="&#xd4;" horiz-adv-x="1533" d="M109 659q0 313 190 512t477 199q283 0 466 -178t183 -498q0 -313 -193.5 -515t-481.5 -202q-281 0 -461 180t-180 502zM313 672q0 -264 126 -420t329 -156q205 0 329 160t124 426q0 264 -126 417.5t-331 153.5t-328 -156.5t-123 -424.5zM477 1493q68 86 168 199 q41 45 66.5 59t68.5 14q33 0 62 -8q96 -113 209 -264l-58 -49q-109 76 -229 178q-225 -176 -229 -178z" />
<glyph unicode="&#xd5;" horiz-adv-x="1533" d="M109 659q0 313 190 512t477 199q283 0 466 -178t183 -498q0 -313 -193.5 -515t-481.5 -202q-281 0 -461 180t-180 502zM313 672q0 -264 126 -420t329 -156q205 0 329 160t124 426q0 264 -126 417.5t-331 153.5t-328 -156.5t-123 -424.5zM446 1511q76 184 207 185 q57 0 132 -45t116 -45t68.5 20.5t64.5 65.5l58 -31q-33 -80 -84.5 -133t-118.5 -53q-61 0 -136 44t-114 44q-63 0 -133 -84z" />
<glyph unicode="&#xd6;" horiz-adv-x="1533" d="M109 659q0 313 190 512t477 199q283 0 466 -178t183 -498q0 -313 -193.5 -515t-481.5 -202q-281 0 -461 180t-180 502zM313 672q0 -264 126 -420t329 -156q205 0 329 160t124 426q0 264 -126 417.5t-331 153.5t-328 -156.5t-123 -424.5zM463 1599q0 45 32.5 78t77.5 33 t77 -31.5t32 -79.5q0 -41 -32 -72.5t-77 -31.5t-77.5 31.5t-32.5 72.5zM881 1599q0 47 30.5 79t75.5 32t78 -31.5t33 -79.5q0 -41 -33 -72.5t-78 -31.5q-43 0 -74.5 31.5t-31.5 72.5z" />
<glyph unicode="&#xd7;" horiz-adv-x="894" d="M106 190q-12 56 66 136l180 184l-172 176q-78 80 -65 133l63 64l271 -277l272 277l61 -62q12 -53 -65 -133l-174 -176l180 -184q78 -80 65 -135l-59 -62l-283 285l-280 -285z" />
<glyph unicode="&#xd8;" horiz-adv-x="1533" d="M109 659q0 313 190 512t477 199q227 0 391 -121l21 25q49 59 123 100l67 -55q-35 -55 -98 -131l-18 -23q164 -184 163 -471q0 -313 -193.5 -515t-481.5 -202q-227 0 -390 123l-24 -28q-51 -59 -121 -101l-68 56q45 70 97 131l24 28q-160 182 -159 473zM313 672 q0 -207 72 -346l684 807q-121 121 -305 120q-205 0 -328 -156.5t-123 -424.5zM461 219q119 -123 307 -123q205 0 329 160t124 426q0 205 -76 346z" />
<glyph unicode="&#xd9;" horiz-adv-x="1579" d="M63 1348h574v-74q-47 -18 -205 -41v-684q0 -213 92 -325.5t299 -112.5q365 0 365 438v684q-158 23 -205 41v74h533q0 -55 -34 -76t-151 -41l-2 -696q0 -254 -141 -407t-381 -153q-274 0 -416.5 133.5t-142.5 426.5v696q-117 20 -151 40.5t-34 76.5zM555 1667q0 68 78 88 q229 -165 366 -237l-22 -54q-422 61 -422 203z" />
<glyph unicode="&#xda;" horiz-adv-x="1579" d="M63 1348h574v-74q-47 -18 -205 -41v-684q0 -213 92 -325.5t299 -112.5q365 0 365 438v684q-158 23 -205 41v74h533q0 -55 -34 -76t-151 -41l-2 -696q0 -254 -141 -407t-381 -153q-274 0 -416.5 133.5t-142.5 426.5v696q-117 20 -151 40.5t-34 76.5zM618 1518 q143 76 365 237q78 -18 78 -88q0 -76 -118 -127t-302 -76z" />
<glyph unicode="&#xdb;" horiz-adv-x="1579" d="M63 1348h574v-74q-47 -18 -205 -41v-684q0 -213 92 -325.5t299 -112.5q365 0 365 438v684q-158 23 -205 41v74h533q0 -55 -34 -76t-151 -41l-2 -696q0 -254 -141 -407t-381 -153q-274 0 -416.5 133.5t-142.5 426.5v696q-117 20 -151 40.5t-34 76.5zM532 1493 q68 86 168 199q41 45 67 59t69 14q32 0 61 -8q96 -113 209 -264l-57 -49q-109 76 -230 178q-225 -176 -229 -178z" />
<glyph unicode="&#xdc;" horiz-adv-x="1579" d="M63 1348h574v-74q-47 -18 -205 -41v-684q0 -213 92 -325.5t299 -112.5q365 0 365 438v684q-158 23 -205 41v74h533q0 -55 -34 -76t-151 -41l-2 -696q0 -254 -141 -407t-381 -153q-274 0 -416.5 133.5t-142.5 426.5v696q-117 20 -151 40.5t-34 76.5zM492 1599 q0 45 32.5 78t77.5 33t77 -31.5t32 -79.5q0 -41 -32 -72.5t-77 -31.5t-77.5 31.5t-32.5 72.5zM909 1599q0 47 31 79t76 32t77.5 -31.5t32.5 -79.5q0 -41 -32.5 -72.5t-77.5 -31.5q-43 0 -75 31.5t-32 72.5z" />
<glyph unicode="&#xdd;" horiz-adv-x="1265" d="M39 1348h541v-74q-35 -12 -189 -37l279 -565l284 565q-158 27 -190 37v74h463q0 -51 -28 -73t-114 -40l-348 -666v-452q119 -20 189 -43v-74h-561q0 55 34.5 76.5t153.5 42.5v409l-371 707q-86 18 -114.5 39.5t-28.5 73.5zM465 1518q143 76 364 237q78 -18 78 -88 q0 -76 -118 -127t-302 -76z" />
<glyph unicode="&#xde;" horiz-adv-x="1226" d="M82 0q0 55 34 75.5t150 41.5v1112q-115 20 -146.5 40.5t-31.5 78.5h551v-74q-70 -23 -188 -43v-203q98 6 221 6q248 0 367.5 -75.5t119.5 -247.5q0 -160 -141 -257.5t-395 -97.5q-94 0 -172 9v-248q119 -20 188 -43v-74h-557zM451 471q57 -8 172 -8q180 0 257.5 68.5 t77.5 168.5q0 131 -78.5 180.5t-252.5 49.5q-102 0 -176 -4v-455z" />
<glyph unicode="&#xdf;" horiz-adv-x="1236" d="M68 0q0 53 30.5 73.5t137.5 41.5v725q-70 6 -152 30v74q63 8 152 10v58q0 215 124.5 344t321.5 129q176 0 266 -78t90 -193q0 -82 -45 -149.5t-98 -105t-98 -89t-45 -106.5q0 -57 36.5 -89t149.5 -89q137 -70 187.5 -138.5t50.5 -177.5q0 -131 -96.5 -212t-239.5 -81 q-150 0 -224.5 48.5t-74.5 119.5q0 47 32.5 74t75.5 33q2 -4 13.5 -23.5t15.5 -26.5l14 -24.5t18.5 -26t20.5 -22.5t23.5 -20.5t27 -14.5t32.5 -11t36 -3q80 0 124 43t44 117q0 68 -38 109.5t-142 90.5q-123 57 -185.5 119t-62.5 170q0 55 27.5 104.5t67.5 89.5t80 78.5 t67.5 91t27.5 109.5q0 78 -52 121t-149 43q-247 0 -247 -262v-1104h-344z" />
<glyph unicode="&#xe0;" horiz-adv-x="1011" d="M86 240q0 139 119 211.5t330 72.5q45 0 114 -4q2 72 2 105q0 119 -50 184t-140 65q-33 0 -60.5 -10t-56.5 -37.5t-41 -41t-42 -54.5t-32 -43q-86 14 -105.5 82t52.5 121q117 88 328 88q322 0 321 -332q0 -76 -7 -238.5t-7 -234.5q90 -24 156 -47v-64q-61 -84 -154 -83 q-106 0 -149 143q-92 -145 -273 -146q-143 0 -224 75t-81 188zM207 1397q0 41 31.5 63.5t87.5 20.5q121 -156 297 -324l-43 -51q-80 39 -125 62.5t-113 65.5t-101.5 83t-33.5 80zM272 262q0 -74 50.5 -112.5t134.5 -38.5q59 0 110 27.5t74 70.5l4 207q-186 10 -279.5 -20.5 t-93.5 -133.5z" />
<glyph unicode="&#xe1;" horiz-adv-x="1011" d="M86 240q0 139 119 211.5t330 72.5q45 0 114 -4q2 72 2 105q0 119 -50 184t-140 65q-33 0 -60.5 -10t-56.5 -37.5t-41 -41t-42 -54.5t-32 -43q-86 14 -105.5 82t52.5 121q117 88 328 88q322 0 321 -332q0 -76 -7 -238.5t-7 -234.5q90 -24 156 -47v-64q-61 -84 -154 -83 q-106 0 -149 143q-92 -145 -273 -146q-143 0 -224 75t-81 188zM272 262q0 -74 50.5 -112.5t134.5 -38.5q59 0 110 27.5t74 70.5l4 207q-186 10 -279.5 -20.5t-93.5 -133.5zM297 1155q168 162 297 326q55 2 87 -20.5t32 -63.5q0 -39 -34 -80t-103.5 -83t-112.5 -65.5 t-125 -62.5z" />
<glyph unicode="&#xe2;" horiz-adv-x="1011" d="M86 240q0 139 119 211.5t330 72.5q45 0 114 -4q2 72 2 105q0 119 -50 184t-140 65q-33 0 -60.5 -10t-56.5 -37.5t-41 -41t-42 -54.5t-32 -43q-86 14 -105.5 82t52.5 121q117 88 328 88q322 0 321 -332q0 -76 -7 -238.5t-7 -234.5q90 -24 156 -47v-64q-61 -84 -154 -83 q-106 0 -149 143q-92 -145 -273 -146q-143 0 -224 75t-81 188zM182 1139q98 172 160 266q31 45 56.5 60.5t76.5 15.5q37 0 62 -4q84 -131 202 -336l-59 -45l-221 235l-217 -235zM272 262q0 -74 50.5 -112.5t134.5 -38.5q59 0 110 27.5t74 70.5l4 207q-186 10 -279.5 -20.5 t-93.5 -133.5z" />
<glyph unicode="&#xe3;" horiz-adv-x="1011" d="M86 240q0 139 119 211.5t330 72.5q45 0 114 -4q2 72 2 105q0 119 -50 184t-140 65q-33 0 -60.5 -10t-56.5 -37.5t-41 -41t-42 -54.5t-32 -43q-86 14 -105.5 82t52.5 121q117 88 328 88q322 0 321 -332q0 -76 -7 -238.5t-7 -234.5q90 -24 156 -47v-64q-61 -84 -154 -83 q-106 0 -149 143q-92 -145 -273 -146q-143 0 -224 75t-81 188zM147 1190q76 184 201 184q55 0 130 -44t114 -44q29 0 53.5 14.5t35.5 26.5t38 45l57 -31q-74 -186 -196 -186q-59 0 -133 43t-113 43q-29 0 -56.5 -16.5t-36 -25.5t-34.5 -42zM272 262q0 -74 50.5 -112.5 t134.5 -38.5q59 0 110 27.5t74 70.5l4 207q-186 10 -279.5 -20.5t-93.5 -133.5z" />
<glyph unicode="&#xe4;" horiz-adv-x="1011" d="M86 240q0 139 119 211.5t330 72.5q45 0 114 -4q2 72 2 105q0 119 -50 184t-140 65q-33 0 -60.5 -10t-56.5 -37.5t-41 -41t-42 -54.5t-32 -43q-86 14 -105.5 82t52.5 121q117 88 328 88q322 0 321 -332q0 -76 -7 -238.5t-7 -234.5q90 -24 156 -47v-64q-61 -84 -154 -83 q-106 0 -149 143q-92 -145 -273 -146q-143 0 -224 75t-81 188zM154 1282q0 45 32.5 77t79.5 32q45 0 76 -32t31 -77q0 -43 -32 -74.5t-75 -31.5q-45 0 -78.5 32.5t-33.5 73.5zM272 262q0 -74 50.5 -112.5t134.5 -38.5q59 0 110 27.5t74 70.5l4 207q-186 10 -279.5 -20.5 t-93.5 -133.5zM563 1282q0 45 32 77t77 32t77.5 -32t32.5 -77q0 -43 -32.5 -74.5t-77.5 -31.5t-77 32.5t-32 73.5z" />
<glyph unicode="&#xe5;" horiz-adv-x="1011" d="M86 240q0 139 119 211.5t330 72.5q45 0 114 -4q2 72 2 105q0 119 -50 184t-140 65q-33 0 -60.5 -10t-56.5 -37.5t-41 -41t-42 -54.5t-32 -43q-86 14 -105.5 82t52.5 121q117 88 328 88q322 0 321 -332q0 -76 -7 -238.5t-7 -234.5q90 -24 156 -47v-64q-61 -84 -154 -83 q-106 0 -149 143q-92 -145 -273 -146q-143 0 -224 75t-81 188zM246 1280q0 88 59.5 146.5t159.5 58.5q94 0 155.5 -49.5t61.5 -141.5q0 -88 -60.5 -146t-156.5 -58q-92 0 -155.5 49t-63.5 141zM272 262q0 -74 50.5 -112.5t134.5 -38.5q59 0 110 27.5t74 70.5l4 207 q-186 10 -279.5 -20.5t-93.5 -133.5zM352 1286q0 -51 33 -85t82 -34q51 0 81 34t30 87q0 51 -33 86t-82 35q-51 0 -81 -35t-30 -88z" />
<glyph unicode="&#xe6;" horiz-adv-x="1544" d="M86 256q0 315 483 315h84q2 43 2 76q0 227 -178 227q-35 0 -65.5 -11t-58 -36.5t-43 -42t-42 -53.5t-32.5 -43q-86 14 -106.5 81t50.5 120q121 90 328 90q197 0 272 -148q127 147 320 148q184 0 274 -105.5t90 -285.5q0 -55 -6 -119h-618q-4 -152 72.5 -253t240.5 -101 q127 0 240 92q12 -6 30.5 -28.5t22.5 -33.5q-125 -168 -356 -168q-236 0 -357 170q-117 -170 -327 -170q-152 0 -236 80t-84 199zM274 281q0 -80 48.5 -127.5t140.5 -47.5q152 0 225 127q-37 92 -37 209v25h-76q-301 0 -301 -186zM848 571h444q0 156 -52 229.5t-165 73.5 q-111 0 -168 -87t-59 -216z" />
<glyph unicode="&#xe7;" horiz-adv-x="956" d="M82 453q0 225 139 375.5t373 150.5q170 0 252 -29q8 -23 8 -80q0 -100 -49 -198h-55q-41 70 -62 178q-53 16 -133 16q-141 0 -214 -100t-73 -246q0 -195 87.5 -300t232.5 -105q125 0 235 98q10 -8 29.5 -30.5t21.5 -30.5q-96 -135 -253 -166l-74 -105q209 -12 209 -172 q0 -86 -66.5 -136t-181.5 -50q-221 0 -221 117q0 39 32.5 60t75.5 21q23 -66 51.5 -94t77.5 -28q39 0 63.5 28.5t24.5 73.5q0 119 -204 127v43q23 31 110 106q-201 4 -318.5 142.5t-117.5 333.5z" />
<glyph unicode="&#xe8;" horiz-adv-x="983" d="M82 451q0 246 128 387t327 141q184 0 275 -99.5t91 -248.5q0 -57 -6 -123h-629q-6 -160 77 -276.5t245 -116.5q129 0 244 98q12 -8 30.5 -30.5t20.5 -30.5q-125 -174 -357 -175q-209 0 -327.5 139.5t-118.5 334.5zM262 1397q0 41 32 63.5t87 20.5q121 -156 297 -324 l-43 -51q-80 39 -125 62.5t-112.5 65.5t-101.5 83t-34 80zM276 610h457q0 262 -221 262q-109 0 -167 -75.5t-69 -186.5z" />
<glyph unicode="&#xe9;" horiz-adv-x="983" d="M82 451q0 246 128 387t327 141q184 0 275 -99.5t91 -248.5q0 -57 -6 -123h-629q-6 -160 77 -276.5t245 -116.5q129 0 244 98q12 -8 30.5 -30.5t20.5 -30.5q-125 -174 -357 -175q-209 0 -327.5 139.5t-118.5 334.5zM276 610h457q0 262 -221 262q-109 0 -167 -75.5 t-69 -186.5zM326 1155q168 162 297 326q55 2 86.5 -20.5t31.5 -63.5q0 -39 -33.5 -80t-103 -83t-112.5 -65.5t-125 -62.5z" />
<glyph unicode="&#xea;" horiz-adv-x="983" d="M82 451q0 246 128 387t327 141q184 0 275 -99.5t91 -248.5q0 -57 -6 -123h-629q-6 -160 77 -276.5t245 -116.5q129 0 244 98q12 -8 30.5 -30.5t20.5 -30.5q-125 -174 -357 -175q-209 0 -327.5 139.5t-118.5 334.5zM233 1139q98 172 160 266q31 45 56.5 60.5t76.5 15.5 q37 0 62 -4q84 -131 203 -336l-60 -45l-221 235l-217 -235zM276 610h457q0 262 -221 262q-109 0 -167 -75.5t-69 -186.5z" />
<glyph unicode="&#xeb;" horiz-adv-x="983" d="M82 451q0 246 128 387t327 141q184 0 275 -99.5t91 -248.5q0 -57 -6 -123h-629q-6 -160 77 -276.5t245 -116.5q129 0 244 98q12 -8 30.5 -30.5t20.5 -30.5q-125 -174 -357 -175q-209 0 -327.5 139.5t-118.5 334.5zM205 1282q0 45 32.5 77t79.5 32q45 0 76 -32t31 -77 q0 -43 -32 -74.5t-75 -31.5q-45 0 -78.5 32.5t-33.5 73.5zM276 610h457q0 262 -221 262q-109 0 -167 -75.5t-69 -186.5zM614 1282q0 45 32 77t77 32t78 -32t33 -77q0 -43 -33 -74.5t-78 -31.5q-43 0 -76 32.5t-33 73.5z" />
<glyph unicode="&#xec;" horiz-adv-x="628" d="M53 1397q0 41 32 63.5t87 20.5q121 -156 297 -324l-43 -51q-80 39 -125 62.5t-112.5 65.5t-101.5 83t-34 80zM68 0q0 53 31.5 73.5t138.5 41.5v696q-94 18 -148 47v53q121 66 232 66q47 0 92 -25v-839q96 -16 161 -39v-74h-507z" />
<glyph unicode="&#xed;" horiz-adv-x="628" d="M68 0q0 53 31.5 73.5t138.5 41.5v696q-94 18 -148 47v53q121 66 232 66q47 0 92 -25v-839q96 -16 161 -39v-74h-507zM102 1155q168 162 297 326q55 2 87 -20.5t32 -63.5q0 -39 -33.5 -80t-103.5 -83t-113 -65.5t-125 -62.5z" />
<glyph unicode="&#xee;" horiz-adv-x="628" d="M12 1139q98 172 160 266q31 45 56.5 60.5t76.5 15.5q37 0 62 -4q84 -131 202 -336l-59 -45l-221 235l-217 -235zM68 0q0 53 31.5 73.5t138.5 41.5v696q-94 18 -148 47v53q121 66 232 66q47 0 92 -25v-839q96 -16 161 -39v-74h-507z" />
<glyph unicode="&#xef;" horiz-adv-x="628" d="M4 1282q0 45 33 77t80 32q45 0 75.5 -32t30.5 -77q0 -43 -31.5 -74.5t-74.5 -31.5q-45 0 -79 32.5t-34 73.5zM68 0q0 53 31.5 73.5t138.5 41.5v696q-94 18 -148 47v53q121 66 232 66q47 0 92 -25v-839q96 -16 161 -39v-74h-507zM377 1282q0 45 31.5 77t76.5 32t78 -32 t33 -77q0 -43 -33 -74.5t-78 -31.5q-43 0 -75.5 32.5t-32.5 73.5z" />
<glyph unicode="&#xf0;" horiz-adv-x="1130" d="M96 498q0 199 122 339t327 140q168 0 260 -96q-57 180 -197 305l-309 -172l-31 37q2 43 26.5 68.5t84.5 58.5l139 77q-150 98 -352 140q0 51 14 80q268 -25 469 -148l248 137l31 -41q-4 -37 -22.5 -60.5t-69.5 -51.5l-93 -51q287 -233 287 -654q0 -299 -126 -464 t-339 -165q-207 0 -338 142.5t-131 378.5zM287 504q0 -182 83 -301t210 -119q131 0 201.5 131t70.5 363q0 98 -14 172q-91 114 -265 114q-139 0 -212.5 -105.5t-73.5 -254.5z" />
<glyph unicode="&#xf1;" horiz-adv-x="1259" d="M68 0q0 53 30.5 73.5t137.5 41.5v696q-94 18 -148 47v53q121 66 231 66q45 0 91 -25v-141q109 168 303 168q160 0 244.5 -100t84.5 -254v-512q98 -16 164 -39v-74h-508q0 53 31 73.5t137 41.5v460q0 133 -58 202t-167 69q-154 0 -229 -152v-581q98 -16 163 -39v-74h-507z M315 1190q76 184 201 184q55 0 130 -44t114 -44q29 0 53.5 14.5t35.5 26.5t38 45l57 -31q-74 -186 -196 -186q-59 0 -133 43t-113 43q-29 0 -56.5 -16.5t-36 -25.5t-34.5 -42z" />
<glyph unicode="&#xf2;" horiz-adv-x="1120" d="M86 465q0 215 134 364.5t351 149.5q211 0 337 -131t126 -354q0 -215 -134 -366t-351 -151q-211 0 -337 133.5t-126 354.5zM276 479q0 -178 75 -284.5t212 -106.5q131 0 207 107.5t76 283.5q0 178 -75 283.5t-212 105.5q-129 0 -206 -106.5t-77 -282.5zM344 1397 q0 41 32 63.5t87 20.5q121 -156 297 -324l-43 -51q-80 39 -125 62.5t-112.5 65.5t-101.5 83t-34 80z" />
<glyph unicode="&#xf3;" horiz-adv-x="1120" d="M86 465q0 215 134 364.5t351 149.5q211 0 337 -131t126 -354q0 -215 -134 -366t-351 -151q-211 0 -337 133.5t-126 354.5zM276 479q0 -178 75 -284.5t212 -106.5q131 0 207 107.5t76 283.5q0 178 -75 283.5t-212 105.5q-129 0 -206 -106.5t-77 -282.5zM346 1155 q168 162 297 326q55 2 87 -20.5t32 -63.5q0 -39 -34 -80t-103.5 -83t-112.5 -65.5t-125 -62.5z" />
<glyph unicode="&#xf4;" horiz-adv-x="1120" d="M86 465q0 215 134 364.5t351 149.5q211 0 337 -131t126 -354q0 -215 -134 -366t-351 -151q-211 0 -337 133.5t-126 354.5zM276 479q0 -178 75 -284.5t212 -106.5q131 0 207 107.5t76 283.5q0 178 -75 283.5t-212 105.5q-129 0 -206 -106.5t-77 -282.5zM283 1139 q98 172 159 266q31 45 56.5 60.5t76.5 15.5q37 0 62 -4q84 -131 203 -336l-60 -45l-221 235l-217 -235z" />
<glyph unicode="&#xf5;" horiz-adv-x="1120" d="M86 465q0 215 134 364.5t351 149.5q211 0 337 -131t126 -354q0 -215 -134 -366t-351 -151q-211 0 -337 133.5t-126 354.5zM256 1190q76 184 201 184q55 0 129.5 -44t113.5 -44q29 0 53.5 14.5t36 26.5t37.5 45l58 -31q-74 -186 -197 -186q-59 0 -133 43t-113 43 q-29 0 -56.5 -16.5t-35.5 -25.5t-35 -42zM276 479q0 -178 75 -284.5t212 -106.5q131 0 207 107.5t76 283.5q0 178 -75 283.5t-212 105.5q-129 0 -206 -106.5t-77 -282.5z" />
<glyph unicode="&#xf6;" horiz-adv-x="1120" d="M86 465q0 215 134 364.5t351 149.5q211 0 337 -131t126 -354q0 -215 -134 -366t-351 -151q-211 0 -337 133.5t-126 354.5zM252 1282q0 45 32.5 77t80.5 32q45 0 75.5 -32t30.5 -77q0 -43 -31.5 -74.5t-74.5 -31.5q-45 0 -79 32.5t-34 73.5zM276 479q0 -178 75 -284.5 t212 -106.5q131 0 207 107.5t76 283.5q0 178 -75 283.5t-212 105.5q-129 0 -206 -106.5t-77 -282.5zM662 1282q0 45 31.5 77t76.5 32t78 -32t33 -77q0 -43 -33 -74.5t-78 -31.5t-76.5 32.5t-31.5 73.5z" />
<glyph unicode="&#xf7;" horiz-adv-x="1069" d="M98 487v95q68 12 191 12h682v-84q-33 -49 -142 -49h-565q-80 0 -166 26zM418 211q0 47 34.5 81t80 34t80 -34t34.5 -81t-34.5 -81t-80 -34t-80 34t-34.5 81zM418 833.5q0 47.5 34.5 81t80 33.5t80 -33.5t34.5 -81t-34.5 -81t-80 -33.5t-80 33.5t-34.5 81z" />
<glyph unicode="&#xf8;" horiz-adv-x="1120" d="M86 465q0 215 134 364.5t351 149.5q152 0 267 -80l4 4q47 59 106 88l62 -49q-31 -52 -86 -115l-2 -2q113 -131 112 -333q0 -215 -135 -365t-354 -150q-150 0 -264 80l-7 -6q-51 -57 -110 -90l-60 49q33 53 89 117l6 6q-113 135 -113 332zM276 481q0 -129 31 -217l443 531 q-74 74 -191 73q-131 0 -207 -105.5t-76 -281.5zM369 164q70 -76 194 -76q129 0 206 108.5t77 284.5q0 125 -35 213z" />
<glyph unicode="&#xf9;" horiz-adv-x="1181" d="M53 858v53q121 66 230 66q47 0 92 -25q-6 -326 -6 -587q0 -121 54 -186.5t152 -65.5q147 0 230 149l6 547q-100 14 -164 49v53q121 66 248 66q47 0 92 -25q-2 -164 -3 -414.5t-3 -338.5q88 -29 131 -49v-68q-33 -39 -85 -68.5t-93 -29.5q-49 0 -105 172 q-125 -178 -319 -179q-152 0 -234.5 92.5t-82.5 264.5q0 201 6 477q-92 18 -146 47zM334 1397q0 41 31.5 63.5t87.5 20.5q121 -156 297 -324l-43 -51q-80 39 -125 62.5t-113 65.5t-101.5 83t-33.5 80z" />
<glyph unicode="&#xfa;" horiz-adv-x="1181" d="M53 858v53q121 66 230 66q47 0 92 -25q-6 -326 -6 -587q0 -121 54 -186.5t152 -65.5q147 0 230 149l6 547q-100 14 -164 49v53q121 66 248 66q47 0 92 -25q-2 -164 -3 -414.5t-3 -338.5q88 -29 131 -49v-68q-33 -39 -85 -68.5t-93 -29.5q-49 0 -105 172 q-125 -178 -319 -179q-152 0 -234.5 92.5t-82.5 264.5q0 201 6 477q-92 18 -146 47zM401 1155q168 162 297 326q55 2 87 -20.5t32 -63.5q0 -39 -33.5 -80t-103.5 -83t-113 -65.5t-125 -62.5z" />
<glyph unicode="&#xfb;" horiz-adv-x="1181" d="M53 858v53q121 66 230 66q47 0 92 -25q-6 -326 -6 -587q0 -121 54 -186.5t152 -65.5q147 0 230 149l6 547q-100 14 -164 49v53q121 66 248 66q47 0 92 -25q-2 -164 -3 -414.5t-3 -338.5q88 -29 131 -49v-68q-33 -39 -85 -68.5t-93 -29.5q-49 0 -105 172 q-125 -178 -319 -179q-152 0 -234.5 92.5t-82.5 264.5q0 201 6 477q-92 18 -146 47zM289 1139q98 172 160 266q31 45 56 60.5t77 15.5q36 0 61 -4q84 -131 203 -336l-60 -45l-221 235l-217 -235z" />
<glyph unicode="&#xfc;" horiz-adv-x="1181" d="M53 858v53q121 66 230 66q47 0 92 -25q-6 -326 -6 -587q0 -121 54 -186.5t152 -65.5q147 0 230 149l6 547q-100 14 -164 49v53q121 66 248 66q47 0 92 -25q-2 -164 -3 -414.5t-3 -338.5q88 -29 131 -49v-68q-33 -39 -85 -68.5t-93 -29.5q-49 0 -105 172 q-125 -178 -319 -179q-152 0 -234.5 92.5t-82.5 264.5q0 201 6 477q-92 18 -146 47zM246 1282q0 45 32.5 77t79.5 32q45 0 76 -32t31 -77q0 -43 -32 -74.5t-75 -31.5q-45 0 -78.5 32.5t-33.5 73.5zM655 1282q0 45 32 77t77 32t77.5 -32t32.5 -77q0 -43 -32.5 -74.5 t-77.5 -31.5q-43 0 -76 32.5t-33 73.5z" />
<glyph unicode="&#xfd;" horiz-adv-x="1021" d="M10 874v74q72 10 170 10h99q102 0 167 -2v-71q-37 -29 -141 -33l238 -668l235 668h-2q-109 4 -141 33v71q66 2 168 2h37q100 0 172 -10v-74q-41 -12 -103 -22q-129 -371 -291 -770q-80 -197 -149.5 -325t-124.5 -180t-92 -68.5t-80 -16.5q-66 0 -97.5 38t-27.5 89 q18 6 68.5 25.5t62.5 24.5t48 21.5t48.5 29t41 35t46 48t43 62.5t52.5 84l-346 903q-57 8 -101 22zM342 1155q168 162 297 326q55 2 87 -20.5t32 -63.5q0 -39 -34 -80t-103.5 -83t-112.5 -65.5t-125 -62.5z" />
<glyph unicode="&#xfe;" horiz-adv-x="1134" d="M4 -485q0 53 31 73.5t137 40.5v1692q-104 16 -166 49v53q43 23 116 44.5t124 21.5q57 0 102 -25v-612q109 127 281 127q197 0 306 -134t109 -323q0 -240 -141 -391t-364 -151q-104 0 -191 22v-375q100 -14 189 -39v-73h-533zM348 145q78 -53 203 -53q139 0 223 103.5 t84 283.5q0 164 -79 264.5t-216 100.5q-131 0 -215 -96v-603z" />
<glyph unicode="&#xff;" horiz-adv-x="1021" d="M10 874v74q72 10 170 10h99q102 0 167 -2v-71q-37 -29 -141 -33l238 -668l235 668h-2q-109 4 -141 33v71q66 2 168 2h37q100 0 172 -10v-74q-41 -12 -103 -22q-129 -371 -291 -770q-80 -197 -149.5 -325t-124.5 -180t-92 -68.5t-80 -16.5q-66 0 -97.5 38t-27.5 89 q18 6 68.5 25.5t62.5 24.5t48 21.5t48.5 29t41 35t46 48t43 62.5t52.5 84l-346 903q-57 8 -101 22zM215 1282q0 45 33 77t80 32q45 0 75.5 -32t30.5 -77q0 -43 -31.5 -74.5t-74.5 -31.5q-45 0 -79 32.5t-34 73.5zM625 1282q0 45 31.5 77t76.5 32t78 -32t33 -77 q0 -43 -33 -74.5t-78 -31.5t-76.5 32.5t-31.5 73.5z" />
<glyph unicode="&#x152;" horiz-adv-x="1835" d="M109 657.5q0 315.5 189 514t476 198.5q102 1 184 -22h760q12 -33 13 -93q0 -104 -48 -221h-61q-43 94 -66 203h-444v-465h447v-61q-29 -57 -109 -58h-338v-542h449q23 127 63 215h62q47 -119 47 -228q0 -55 -17 -98h-774q-113 -23 -186 -23q-291 0 -469 182.5t-178 498z M313 672q0 -266 127 -420t348 -154q70 0 140 17v1120q-70 20 -154 20q-219 0 -340 -161.5t-121 -421.5z" />
<glyph unicode="&#x153;" horiz-adv-x="1744" d="M86 465q0 215 135 364.5t354 149.5q260 0 377 -199q51 90 140.5 144.5t205.5 54.5q188 0 277.5 -103.5t89.5 -285.5q0 -39 -4 -125h-625q-4 -152 74 -251t242 -99q128 0 241 92q12 -6 30.5 -28.5t23.5 -33.5q-125 -168 -349 -168q-270 0 -372 197q-121 -197 -377 -197 q-211 0 -337 133.5t-126 354.5zM279 481q0 -178 75.5 -284.5t212.5 -106.5q129 0 205 107.5t76 283.5q0 178 -76 283.5t-213 105.5q-129 0 -204.5 -106.5t-75.5 -282.5zM1044 567h451q0 158 -52 232.5t-169 74.5q-111 0 -169 -89t-61 -218z" />
<glyph unicode="&#x178;" horiz-adv-x="1265" d="M39 1348h541v-74q-35 -12 -189 -37l279 -565l284 565q-158 27 -190 37v74h463q0 -51 -28 -73t-114 -40l-348 -666v-452q119 -20 189 -43v-74h-561q0 55 34.5 76.5t153.5 42.5v409l-371 707q-86 18 -114.5 39.5t-28.5 73.5zM348 1599q0 45 33 78t78 33t76.5 -31.5 t31.5 -79.5q0 -41 -31.5 -72.5t-76.5 -31.5t-78 31.5t-33 72.5zM766 1599q0 47 30.5 79t76 32t78 -31.5t32.5 -79.5q0 -41 -32.5 -72.5t-78.5 -31.5q-43 0 -74.5 31.5t-31.5 72.5z" />
<glyph unicode="&#x2c6;" horiz-adv-x="819" d="M131 1139q98 172 160 266q31 45 56.5 60.5t76.5 15.5q36 0 61 -4q84 -131 203 -336l-59 -45l-221 235l-218 -235z" />
<glyph unicode="&#x2dc;" horiz-adv-x="819" d="M94 1190q76 184 201 184q55 0 130 -44t114 -44q29 0 53 14.5t35.5 26.5t38.5 45l57 -31q-74 -186 -197 -186q-59 0 -133 43t-112 43q-29 0 -56.5 -16.5t-36 -25.5t-34.5 -42z" />
<glyph unicode="&#x2000;" horiz-adv-x="897" />
<glyph unicode="&#x2001;" horiz-adv-x="1794" />
<glyph unicode="&#x2002;" horiz-adv-x="897" />
<glyph unicode="&#x2003;" horiz-adv-x="1794" />
<glyph unicode="&#x2004;" horiz-adv-x="598" />
<glyph unicode="&#x2005;" horiz-adv-x="448" />
<glyph unicode="&#x2006;" horiz-adv-x="299" />
<glyph unicode="&#x2007;" horiz-adv-x="299" />
<glyph unicode="&#x2008;" horiz-adv-x="224" />
<glyph unicode="&#x2009;" horiz-adv-x="358" />
<glyph unicode="&#x200a;" horiz-adv-x="99" />
<glyph unicode="&#x2010;" horiz-adv-x="743" d="M133 463v112q20 27 52 34t116 7h309v-112q-20 -27 -52 -34t-116 -7h-309z" />
<glyph unicode="&#x2011;" horiz-adv-x="743" d="M133 463v112q20 27 52 34t116 7h309v-112q-20 -27 -52 -34t-116 -7h-309z" />
<glyph unicode="&#x2012;" horiz-adv-x="743" d="M133 463v112q20 27 52 34t116 7h309v-112q-20 -27 -52 -34t-116 -7h-309z" />
<glyph unicode="&#x2013;" horiz-adv-x="1329" d="M133 465v94q20 27 52 34t116 7h895v-94q-20 -27 -52 -34t-116 -7h-895z" />
<glyph unicode="&#x2014;" horiz-adv-x="2043" d="M133 465v94q20 27 52 34t116 7h1610v-94q-20 -27 -52 -34t-116 -7h-1610z" />
<glyph unicode="&#x2018;" horiz-adv-x="483" d="M102 1092q0 184 215 399l64 -43q-104 -178 -105 -422v-29q-33 -25 -77 -24q-90 0 -97 119z" />
<glyph unicode="&#x2019;" horiz-adv-x="483" d="M102 1008q104 178 105 422v28q33 25 78 25q90 0 96 -119q0 -184 -215 -399z" />
<glyph unicode="&#x201a;" horiz-adv-x="436" d="M51 -274q104 178 105 421v29q33 25 77 25q90 0 97 -119q0 -184 -215 -399z" />
<glyph unicode="&#x201c;" horiz-adv-x="833" d="M102 1092q0 184 215 399l64 -43q-104 -178 -105 -422v-29q-33 -25 -77 -24q-90 0 -97 119zM453 1092q0 184 215 399l63 -43q-104 -178 -104 -422v-29q-33 -25 -78 -24q-90 0 -96 119z" />
<glyph unicode="&#x201d;" horiz-adv-x="833" d="M102 1008q104 178 105 422v28q33 25 78 25q90 0 96 -119q0 -184 -215 -399zM453 1008q104 178 104 422v28q33 25 78 25q90 0 96 -119q0 -184 -215 -399z" />
<glyph unicode="&#x201e;" horiz-adv-x="786" d="M51 -274q104 178 105 421v29q33 25 77 25q90 0 97 -119q0 -184 -215 -399zM401 -274q104 178 105 421v29q33 25 78 25q90 0 96 -119q0 -184 -215 -399z" />
<glyph unicode="&#x2022;" horiz-adv-x="741" d="M174 545q0 82 56.5 139t140.5 57t140 -57t56 -139t-56 -139.5t-140 -57.5t-140.5 57.5t-56.5 139.5z" />
<glyph unicode="&#x2026;" horiz-adv-x="1398" d="M135 92q0 47 35 83t80 36q47 0 83 -36t36 -83q0 -45 -36 -80t-83 -35q-45 0 -80 35t-35 80zM594 92q0 47 35 83t80 36q49 0 83.5 -36t34.5 -83q0 -45 -34.5 -80t-83.5 -35q-45 0 -80 35t-35 80zM1055 92q0 47 34.5 83t79.5 36q47 0 83 -36t36 -83q0 -45 -35.5 -80 t-83.5 -35q-45 0 -79.5 35t-34.5 80z" />
<glyph unicode="&#x202f;" horiz-adv-x="358" />
<glyph unicode="&#x2039;" horiz-adv-x="600" d="M74 512q0 14 2 24.5t7 21.5t8 18.5t13.5 17.5t13.5 14t17.5 17.5t18.5 17.5l292 266l62 -63l-260 -324l270 -317l-55 -68l-381 312q-8 37 -8 63z" />
<glyph unicode="&#x203a;" horiz-adv-x="600" d="M82 203l270 317l-260 324l62 63l292 -266q4 -4 14.5 -13.5t14.5 -13.5t12.5 -12t11.5 -13t9 -12.5t8 -14.5t5 -15t4 -17.5t1 -19.5q0 -27 -8 -64l-381 -311z" />
<glyph unicode="&#x205f;" horiz-adv-x="448" />
<glyph unicode="&#x20ac;" horiz-adv-x="1253" d="M59 510v70q51 8 158 12q-2 18 -2 57q0 41 4 115q-86 0 -160 27v69q53 8 177 12q47 236 195.5 366t377.5 130q211 0 336 -35q12 -41 12 -100q0 -100 -55 -236h-62q-47 100 -69 228q-98 31 -205 30q-287 0 -342 -383h444v-69q-20 -25 -52 -32t-116 -7h-286q-2 -31 -2 -96 q0 -51 2 -76h454v-70q-20 -25 -52 -32t-116 -7h-274q61 -375 387 -374q160 0 295 135q39 -25 53 -58q-55 -84 -151.5 -146.5t-221.5 -62.5q-233 0 -378.5 130.5t-182.5 375.5h-2q-88 0 -166 27z" />
<glyph unicode="&#x2122;" horiz-adv-x="1855" d="M86 1298q0 27 8 50h656q8 -23 8 -50q0 -90 -31 -157h-49q-27 70 -37 131h-156v-496q70 -16 107 -33v-49h-348q0 39 26.5 57.5t85.5 26.5v494h-153q-10 -61 -37 -131h-49q-31 68 -31 157zM768 694q0 70 113 82l51 484q-59 6 -77.5 26.5t-18.5 61.5h219q45 0 62.5 -16.5 t37.5 -80.5l117 -358l121 375q16 49 36.5 64.5t59.5 15.5h215q0 -78 -94 -88l45 -484q111 -12 110 -82h-348v49q49 20 115 29l-47 473l-133 -401q-16 -45 -35 -62.5t-55 -17.5h-76q-100 291 -164 475l-47 -467q57 -6 112 -29v-49h-319z" />
<glyph unicode="&#x25fc;" horiz-adv-x="962" d="M0 0v963h963v-963h-963z" />
</font>
</defs>
</svg>
